<?xml version="1.0" encoding="UTF-8"?>
<svg xmlns="http://www.w3.org/2000/svg" viewBox="0 0 410 680">

    <g id="Background">
        <g id="Background-2" data-name="Background">
            <rect y="0" width="412" height="681"/>
        </g>
    </g>

    assets/ArrMap.svg
    <g id="Walls">

        <g id="LWPOLYLINE-32" data-name="LWPOLYLINE">
            <rect stroke-width=".57px" stroke="grey" fill="none" stroke-miterlimit="10"  x="170.56" y="147.7" width="69.24" height="219.25"/>
        </g>
        <g>
            <g id="LWPOLYLINE-55" data-name="LWPOLYLINE">
                <rect fill="grey" x="105.84" y="77.44" width="10.8" height=".82"/>
            </g>
            <g id="LWPOLYLINE-56" data-name="LWPOLYLINE">
                <rect fill="grey" x="119.8" y="77.44" width="10.8" height=".82"/>
            </g>
            <g id="LWPOLYLINE-57" data-name="LWPOLYLINE">
                <rect fill="grey" x="133.76" y="77.44" width="10.8" height=".82"/>
            </g>
            <g id="LWPOLYLINE-58" data-name="LWPOLYLINE">
                <rect fill="grey" x="167.1" y="77.44" width="10.8" height=".82"/>
            </g>
            <g id="LWPOLYLINE-59" data-name="LWPOLYLINE">
                <rect fill="grey" x="155.73" y="77.44" width="10.8" height=".82"/>
            </g>
            <g id="LWPOLYLINE-60" data-name="LWPOLYLINE">
                <rect fill="grey" x="232.45" y="77.44" width="10.8" height=".82"/>
            </g>
            <g id="LWPOLYLINE-61" data-name="LWPOLYLINE">
                <rect fill="grey" x="243.82" y="77.44" width="10.8" height=".82"/>
            </g>
            <g id="LWPOLYLINE-62" data-name="LWPOLYLINE">
                <rect fill="grey" x="218.2" y="71.92" width="10.8" height=".82"/>
            </g>
            <g id="LWPOLYLINE-63" data-name="LWPOLYLINE">
                <rect fill="grey" x="181.35" y="71.92" width="10.8" height=".82"/>
            </g>
            <g id="LWPOLYLINE-64" data-name="LWPOLYLINE">
                <rect fill="grey" x="265.79" y="77.44" width="10.8" height=".82"/>
            </g>
            <g id="LWPOLYLINE-65" data-name="LWPOLYLINE">
                <rect fill="grey" x="279.75" y="77.44" width="10.8" height=".82"/>
            </g>
            <g id="LWPOLYLINE-66" data-name="LWPOLYLINE">
                <rect fill="grey" x="293.71" y="77.44" width="10.8" height=".82"/>
            </g>
        </g>
        <g id="LWPOLYLINE-67" data-name="LWPOLYLINE">
            <line stroke="grey" fill="none" stroke-linecap="round" stroke-linejoin="round" stroke-width=".43px"  x1="410" y1="396.21" x2="410" y2="406.93"/>
        </g>
        <g id="LWPOLYLINE-68" data-name="LWPOLYLINE">
            <line stroke="grey" fill="none" stroke-linecap="round" stroke-linejoin="round" stroke-width=".43px"  x1=".35" y1="396.21" x2=".35" y2="406.93"/>
        </g>
        <g>


        </g>
    </g>

    <!--Hall A,B Dimmer -->
    <g id="G8_t1_ha">
        <path id="S8_t1_1" fill="#fb0" d="M90.62,372.74c.2,1.07 10.87,12.86 10.86,1.9 10.03,0-2.18-.79-1.98-1.94.16-.71.87-1.23,1.59-1.35,0,.04-.04.08-.04.12l.04.04-.04.08s-.12.08-.2.08c-.59.36-.59,1.15.04,1.51.67.36,1.7-.08,1.55-.95-.04-.24-.2-.4-.4-.52-.04-.04-.16-.08-.2-.12l-.04-.04s0-.08,0-.08c0-.04,0-.08-.04-.12.71.08,1.47.63,1.59,1.39Z"/>
        <path id="S8_t1_2" fill="#fb0" d="M90.63,339.98c.2,1.07-.87,1.86-1.86,1.9-1.03,0-2.18-.79-1.98-1.94.16-.71.87-1.23,1.59-1.35,0,.04-.04.08-.04.12l.04.04-.04.08s-.12.08-.2.08c-.59.36-.59,1.15.04,1.51.67.36,1.7-.08,1.55-.95-.04-.24-.2-.4-.4-.52-.04-.04-.16-.08-.2-.12l-.04-.04s0-.08,0-.08c0-.04,0-.08-.04-.12.71.08,1.47.63,1.59,1.39Z"/>
        <path id="S8_t1_3" fill="#fb0" d="M90.62,307.21c.2,1.07-.87,1.86-1.86,1.9-1.03,0-2.18-.79-1.98-1.94.16-.71.87-1.23,1.59-1.35,0,.04-.04.08-.04.12l.04.04-.04.08s-.12.08-.2.08c-.59.36-.59,1.15.04,1.51.67.36,1.7-.08,1.55-.95-.04-.24-.2-.4-.4-.52-.04-.04-.16-.08-.2-.12l-.04-.04s0-.08,0-.08c0-.04,0-.08-.04-.12.71.08,1.47.63,1.59,1.39Z"/>
        <path id="S8_t1_4" fill="#fb0" d="M90.62,274.45c.2,1.07-.87,1.86-1.86,1.9-1.03,0-2.18-.79-1.98-1.94.16-.71.87-1.23,1.59-1.35,0,.04-.04.08-.04.12l.04.04-.04.08s-.12.08-.2.08c-.59.36-.59,1.15.04,1.51.67.36,1.7-.08,1.55-.95-.04-.24-.2-.4-.4-.52-.04-.04-.16-.08-.2-.12l-.04-.04s0-.08,0-.08c0-.04,0-.08-.04-.12.71.08,1.47.63,1.59,1.39Z"/>
        <path id="S8_t1_5" fill="#fb0" d="M90.62,241.68c.2,1.07-.87,1.86-1.86,1.9-1.03,0-2.18-.79-1.98-1.94.16-.71.87-1.23,1.59-1.35,0,.04-.04.08-.04.12l.04.04-.04.08s-.12.08-.2.08c-.59.36-.59,1.15.04,1.51.67.36,1.7-.08,1.55-.95-.04-.24-.2-.4-.4-.52-.04-.04-.16-.08-.2-.12l-.04-.04s0-.08,0-.08c0-.04,0-.08-.04-.12.71.08,1.47.63,1.59,1.39Z"/>
        <path id="S8_t1_6" fill="#fb0" d="M90.62,208.91c.2,1.07-.87,1.86-1.86,1.9-1.03,0-2.18-.79-1.98-1.94.16-.71.87-1.23,1.59-1.35,0,.04-.04.08-.04.12l.04.04-.04.08s-.12.08-.2.08c-.59.36-.59,1.15.04,1.51.67.36,1.7-.08,1.55-.95-.04-.24-.2-.4-.4-.52-.04-.04-.16-.08-.2-.12l-.04-.04s0-.08,0-.08c0-.04,0-.08-.04-.12.71.08,1.47.63,1.59,1.39Z"/>
        <path id="S8_t1_7" fill="#fb0" d="M90.62,176.15c.2,1.07-.87,1.86-1.86,1.9-1.03,0-2.18-.79-1.98-1.94.16-.71.87-1.23,1.59-1.35,0,.04-.04.08-.04.12l.04.04-.04.08s-.12.08-.2.08c-.59.36-.59,1.15.04,1.51.67.36,1.7-.08,1.55-.95-.04-.24-.2-.4-.4-.52-.04-.04-.16-.08-.2-.12l-.04-.04s0-.08,0-.08c0-.04,0-.08-.04-.12.71.08,1.47.63,1.59,1.39Z"/>
    </g>
    <g id="G8_t2_hb">
        <path id="S8_t2_1" fill="#fb0" d="M323.35,208.91c.2,1.07-.87,1.86-1.86,1.9-1.03,0-2.18-.79-1.98-1.94.16-.71.87-1.23,1.59-1.35,0,.04-.04.08-.04.12l.04.04-.04.08s-.12.08-.2.08c-.59.36-.59,1.15.04,1.51.67.36,1.7-.08,1.55-.95-.04-.24-.2-.4-.4-.52-.04-.04-.16-.08-.2-.12l-.04-.04s0-.08,0-.08c0-.04,0-.08-.04-.12.71.08,1.47.63,1.59,1.39Z"/>
        <path id="S8_t2_2" fill="#fb0" d="M323.34,241.68c.2,1.07-.87,1.86-1.86,1.9-1.03,0-2.18-.79-1.98-1.94.16-.71.87-1.23,1.59-1.35,0,.04-.04.08-.04.12l.04.04-.04.08s-.12.08-.2.08c-.59.36-.59,1.15.04,1.51.67.36,1.7-.08,1.55-.95-.04-.24-.2-.4-.4-.52-.04-.04-.16-.08-.2-.12l-.04-.04s0-.08,0-.08c0-.04,0-.08-.04-.12.71.08,1.47.63,1.59,1.39Z"/>
        <path id="S8_t2_3" fill="#fb0" d="M323.35,274.45c.2,1.07-.87,1.86-1.86,1.9-1.03,0-2.18-.79-1.98-1.94.16-.71.87-1.23,1.59-1.35,0,.04-.04.08-.04.12l.04.04-.04.08s-.12.08-.2.08c-.59.36-.59,1.15.04,1.51.67.36,1.7-.08,1.55-.95-.04-.24-.2-.4-.4-.52-.04-.04-.16-.08-.2-.12l-.04-.04s0-.08,0-.08c0-.04,0-.08-.04-.12.71.08,1.47.63,1.59,1.39Z"/>
        <path id="S8_t2_4" fill="#fb0" d="M323.35,307.21c.2,1.07-.87,1.86-1.86,1.9-1.03,0-2.18-.79-1.98-1.94.16-.71.87-1.23,1.59-1.35,0,.04-.04.08-.04.12l.04.04-.04.08s-.12.08-.2.08c-.59.36-.59,1.15.04,1.51.67.36,1.7-.08,1.55-.95-.04-.24-.2-.4-.4-.52-.04-.04-.16-.08-.2-.12l-.04-.04s0-.08,0-.08c0-.04,0-.08-.04-.12.71.08,1.47.63,1.59,1.39Z"/>
        <path id="S8_t2_5" fill="#fb0" d="M323.34,339.98c.2,1.07-.87,1.86-1.86,1.9-1.03,0-2.18-.79-1.98-1.94.16-.71.87-1.23,1.59-1.35,0,.04-.04.08-.04.12l.04.04-.04.08s-.12.08-.2.08c-.59.36-.59,1.15.04,1.51.67.36,1.7-.08,1.55-.95-.04-.24-.2-.4-.4-.52-.04-.04-.16-.08-.2-.12l-.04-.04s0-.08,0-.08c0-.04,0-.08-.04-.12.71.08,1.47.63,1.59,1.39Z"/>
        <path id="S8_t2_6" fill="#fb0" d="M323.35,372.74c.2,1.07-.87,1.86-1.86,1.9-1.03,0-2.18-.79-1.98-1.94.16-.71.87-1.23,1.59-1.35,0,.04-.04.08-.04.12l.04.04-.04.08s-.12.08-.2.08c-.59.36-.59,1.15.04,1.51.67.36,1.7-.08,1.55-.95-.04-.24-.2-.4-.4-.52-.04-.04-.16-.08-.2-.12l-.04-.04s0-.08,0-.08c0-.04,0-.08-.04-.12.71.08,1.47.63,1.59,1.39Z"/>
        <path id="S8_t2_7" fill="#fb0" d="M323.34,176.15c.2,1.07-.87,1.86-1.86,1.9-1.03,0-2.18-.79-1.98-1.94.16-.71.87-1.23,1.59-1.35,0,.04-.04.08-.04.12l.04.04-.04.08s-.12.08-.2.08c-.59.36-.59,1.15.04,1.51.67.36,1.7-.08,1.55-.95-.04-.24-.2-.4-.4-.52-.04-.04-.16-.08-.2-.12l-.04-.04s0-.08,0-.08c0-.04,0-.08-.04-.12.71.08,1.47.63,1.59,1.39Z"/>
    </g>



</svg>