<?xml version='1.0' encoding='UTF-8'?>
<svg xmlns="http://www.w3.org/2000/svg" viewBox="0 0 1200 640">
  <g id="Background">
    <rect width="1200" height="640"/>
  </g>
  <g id="Walls">
    <path d="M860.11,0v273.42h106.52V0h-106.52ZM958.45,261.26h-90.53V12.16h90.53v249.1Z" fill="#1d1d1d"/>
    <polyline points="399.51 533.9 399.51 526.15 399.51 526.15 554.33 526.15 554.33 383.82 562.11 383.82 562.11 533.9 554.33 533.9 399.51 533.9" fill="#1d1d1d"/>
    <line x1="695.37" y1="111.26" x2="852.35" y2="111.26" fill="none" stroke="#000" stroke-linecap="round" stroke-linejoin="round" stroke-width=".94"/>
    <line x1="562.11" y1="7.76" x2="562.11" y2="98.33" fill="none" stroke="#1d1d1d" stroke-linecap="round" stroke-linejoin="round" stroke-width=".33"/>
    <line x1="554.33" y1="7.76" x2="554.33" y2="98.33" fill="none" stroke="#1d1d1d" stroke-linecap="round" stroke-linejoin="round" stroke-width=".33"/>
    <polygon points="416.74 313.96 590.57 313.96 590.57 321.71 562.11 321.71 562.11 347.59 554.33 347.59 554.33 321.71 553.49 321.71 416.72 321.71 416.74 313.96" fill="#1d1d1d"/>
    <rect x="852.35" y="480.86" width="114.28" height="7.76" fill="#1d1d1d"/>
    <line x1="855.35" y1="119.03" x2="855.35" y2="270.84" fill="none" stroke="#000" stroke-linecap="round" stroke-linejoin="round" stroke-width=".94"/>
    <rect x="630.66" y="277.29" width="185.46" height="3.89" fill="#1d1d1d" stroke="#1d1d1d" stroke-linecap="round" stroke-linejoin="round" stroke-width=".94"/>
    <line x1="852.35" y1="442.91" x2="860.1" y2="442.91" fill="none" stroke="#000" stroke-linecap="round" stroke-linejoin="round" stroke-width=".94"/>
    <polygon points="852.35 496.39 852.35 345.87 860.1 345.87 860.1 496.39 860.1 570.56 772.99 570.56 772.99 562.8 852.35 562.8 852.35 496.39" fill="#1d1d1d"/>
    <path d="M664.24,567.41v61.67l-144.63-.05v-36.9h-241.71v-231.59h7.76v190.2h-3.81l-.08,37.5h344.9v-83.23h3.99v87.12h-107.72v33.08h137.43v-57.8h3.87Z" fill="#1d1d1d"/>
    <polygon points="586.68 103.5 586.68 111.26 424.51 111.26 424.51 272.56 416.75 272.56 416.75 103.5 586.68 103.5" fill="#1d1d1d"/>
    <polygon points="285.66 316.54 378.27 316.54 378.27 324.3 277.9 324.3 277.9 103.5 380.53 103.5 380.53 111.26 285.66 111.26 285.66 316.54" fill="#1d1d1d"/>
    <polygon points="627.51 468.79 627.51 321.71 623.32 321.71 623.34 321.71 623.34 103.5 630.66 103.5 630.66 468.79 627.51 468.79" fill="#1d1d1d"/>
    <line x1="418.92" y1="103.5" x2="418.92" y2="7.76" fill="none" stroke="#1d1d1d" stroke-linecap="round" stroke-linejoin="round" stroke-width=".33"/>
    <line x1="428.02" y1="103.5" x2="428.02" y2="7.76" fill="none" stroke="#1d1d1d" stroke-linecap="round" stroke-linejoin="round" stroke-width=".33"/>
    <path d="M860.1,103.5h-164.74v27.12h0c0,.93.76,1.68,1.69,1.68v.02s133.9,0,133.9,0v99.61h0c0,.93.76,1.68,1.69,1.68h0,27.46V103.5Z" fill="#1d1d1d"/>
    <polygon points="966.63 273.42 966.63 639.99 277.9 639.99 277.9 632.24 285.65 632.24 285.65 636.13 958.87 636.13 958.87 281.19 852.36 281.19 852.36 7.77 703.12 7.77 703.12 67.27 695.37 67.27 695.32 7.77 233.04 7.77 233.04 632.24 236.93 632.24 236.93 639.99 229.16 639.99 229.16 0 860.11 0 860.11 273.42 966.63 273.42" fill="#1d1d1d"/>
    <polyline points="695.37 103.5 695.37 98.33 428.02 98.33" fill="none" stroke="#1d1d1d" stroke-linecap="round" stroke-linejoin="round" stroke-width=".33"/>
    <path d="M630.66,277.29h174.8v-23.23h0c0-.95-.76-1.7-1.69-1.7h-152.04V116.41h0c0-.95-.76-1.7-1.69-1.7h-19.37v162.59Z" fill="#1d1d1d"/>
    <rect x="416.72" y="321.9" width="8.92" height="211.87" fill="none" stroke="#1d1d1d" stroke-linecap="round" stroke-linejoin="round" stroke-width=".33"/>
    <polygon points="277.9 499.45 268.84 499.45 268.84 417.08 277.9 417.08 277.9 413.58 264.95 413.58 264.95 502.95 277.9 502.95 277.9 499.45" fill="#1d1d1d"/>
    <polygon points="285.86 59.35 235.39 59.35 235.39 59.35 235.39 10.35 351.49 10.35 351.49 59.28 311.04 59.35 311.02 61.94 353.84 61.86 353.84 7.76 233.04 7.76 233.04 61.94 233.04 61.94 285.78 61.94 285.86 59.35" fill="#1d1d1d"/>
  </g>

  <g id="Icons" >

    <g id="Casting_Icons">

      <!--Casting Fans-->
      <g id="casting_f1">
        <metadata><elementId>casting_f1</elementId></metadata>
        <rect x="489.12" y="175.7" width="6.68" height="6.68" rx=".89" ry=".89" fill="#82cceb" stroke="#000" stroke-width=".11"/>
        <path d="M492.5,176.37s.01,0,.02,0h0s0,0,0,0c0,0,.01,0,.02,0,.02,0,.04,0,.06,0,.05,0,.12,0,.19.04.07.03.14.07.19.15.05.08.08.18.08.31h0s-.16,2.22-.16,2.22v.05h-.18v.03c.07.03.21.1.3.27h0c.08.16.06.32.04.39l.06.04.06-.12.03-.05.05.03,1.77.99h0s0,0,0,0c.1.06.16.14.19.23.03.09.03.17.01.25s-.04.14-.07.19c-.01.02-.02.04-.03.06,0,0,0,.01,0,.02,0,0,0,0,0,0,0,0,0,0,0,0,0,0,0,.01,0,.02,0,.01-.02.04-.03.06-.03.05-.07.11-.12.16-.05.05-.12.1-.21.11-.09.01-.18-.01-.28-.09h0s-1.61-1.3-1.61-1.3l-.04-.03.02-.04.07-.13-.06-.04c-.09.08-.21.13-.34.13-.13,0-.25-.05-.34-.13l-.06.04.07.13.02.04-.04.03-1.61,1.3h0c-.1.08-.2.1-.28.09-.09-.01-.16-.06-.21-.11-.05-.05-.09-.11-.12-.16-.01-.02-.02-.04-.03-.06,0,0,0-.01,0-.02,0,0,0,0,0,0,0,0,0,0,0,0,0,0,0,0-.01-.02,0-.01-.02-.03-.03-.06-.02-.05-.05-.12-.07-.2-.02-.08-.02-.17.01-.25.03-.09.09-.17.2-.23h0s0,0,0,0l1.77-.99.05-.03.03.05.06.12.06-.04c-.01-.06-.03-.15,0-.26.06-.24.26-.36.34-.4v-.03h-.18v-.05s-.16-2.22-.16-2.22h0c0-.13.02-.23.08-.31.05-.07.12-.12.19-.14.07-.03.14-.03.19-.04.03,0,.05,0,.06,0ZM492.54,176.48s-.01,0-.01,0c0,0,0,0,0,0h0s0,0,0,0h0s0,0,0,0c0,0,0,0-.01,0-.01,0-.03,0-.05,0-.04,0-.1,0-.15.03-.05.02-.1.05-.14.1-.04.05-.06.13-.06.24h0l.15,2.17h.18v.22h-.03s-.25.13-.31.35h0c-.03.1,0,.19,0,.24v.04s-.02.02-.02.02l-.14.1-.05.03-.03-.05-.07-.12-1.72.96-.03.02c-.07.05-.1.1-.12.16-.02.06-.02.13,0,.2.01.07.04.12.06.17.01.02.02.04.03.05,0,0,0,.01,0,.01h0s0,0,0,0h0s0,0,0,0c0,0,0,0,0,0,0,0,0,0,0,.01,0,.01.01.03.03.05.02.04.06.09.1.14.04.04.09.07.15.08.05,0,.12,0,.2-.07l1.57-1.27-.07-.13-.02-.04.04-.03.14-.09.04-.03.03.03c.08.08.18.13.29.13.11,0,.21-.05.29-.13l.03-.03.04.03.14.09.04.03-.02.04-.07.13,1.57,1.27c.08.06.15.07.2.07.06,0,.11-.04.15-.08.04-.04.08-.09.1-.14.01-.02.02-.04.03-.05,0,0,0-.01,0-.01,0,0,0,0,0,0h0s0,0,0,0h0s0,0,0,0c0,0,0,0,0,0,0,0,0,0,0-.01,0-.01.02-.03.03-.05.02-.04.04-.1.06-.17.01-.06.01-.13,0-.19-.02-.06-.07-.12-.15-.17h0s0,0,0,0l-1.71-.96-.07.12-.03.05-.05-.04-.14-.1-.04-.02v-.04s.08-.18,0-.35h0c-.08-.17-.24-.22-.27-.23h-.04v-.23h.18l.15-2.17c0-.11-.02-.19-.06-.24-.04-.05-.09-.08-.14-.1-.05-.02-.11-.03-.15-.03-.02,0-.04,0-.05,0ZM492.51,179.37c.18,0,.33.16.33.36,0,.2-.15.36-.33.36-.18,0-.33-.16-.33-.36,0-.2.15-.36.33-.36Z"/>
      </g>
      <g id="casting_f2">
        <metadata><elementId>casting_f2</elementId></metadata>
        <rect x="586.6" y="202.8" width="6.68" height="6.68" rx=".89" ry=".89" fill="#82cceb" stroke="#000" stroke-width=".11"/>
        <path d="M589.98,203.47s.01,0,.02,0h0s0,0,0,0c0,0,.01,0,.02,0,.02,0,.04,0,.06,0,.05,0,.12,0,.19.04.07.03.14.07.19.15.05.08.08.18.08.31h0s-.16,2.22-.16,2.22v.05h-.18v.03c.07.03.21.1.3.27h0c.08.16.06.32.04.39l.06.04.06-.12.03-.05.05.03,1.77.99h0s0,0,0,0c.1.06.16.14.19.23.03.09.03.17.01.25s-.04.14-.07.19c-.01.02-.02.04-.03.06,0,0,0,.01,0,.02,0,0,0,0,0,0,0,0,0,0,0,0,0,0,0,.01,0,.02,0,.01-.02.04-.03.06-.03.05-.07.11-.12.16-.05.05-.12.1-.21.11-.09.01-.18-.01-.28-.09h0s-1.61-1.3-1.61-1.3l-.04-.03.02-.04.07-.13-.06-.04c-.09.08-.21.13-.34.13-.13,0-.25-.05-.34-.13l-.06.04.07.13.02.04-.04.03-1.61,1.3h0c-.1.08-.2.1-.28.09-.09-.01-.16-.06-.21-.11-.05-.05-.09-.11-.12-.16-.01-.02-.02-.04-.03-.06,0,0,0-.01,0-.02,0,0,0,0,0,0,0,0,0,0,0,0,0,0,0,0-.01-.02,0-.01-.02-.03-.03-.06-.02-.05-.05-.12-.07-.2-.02-.08-.02-.17.01-.25.03-.09.09-.17.2-.23h0s0,0,0,0l1.77-.99.05-.03.03.05.06.12.06-.04c-.01-.06-.03-.15,0-.26.06-.24.26-.36.34-.4v-.03h-.18v-.05s-.16-2.22-.16-2.22h0c0-.13.02-.23.08-.31.05-.07.12-.12.19-.14.07-.03.14-.03.19-.04.03,0,.05,0,.06,0ZM590.02,203.58s-.01,0-.01,0c0,0,0,0,0,0h0s0,0,0,0h0s0,0,0,0c0,0,0,0-.01,0-.01,0-.03,0-.05,0-.04,0-.1,0-.15.03-.05.02-.1.05-.14.1-.04.05-.06.13-.06.24h0l.15,2.17h.18v.22h-.03s-.25.13-.31.35h0c-.03.1,0,.19,0,.24v.04s-.02.02-.02.02l-.14.1-.05.03-.03-.05-.07-.12-1.72.96-.03.02c-.07.05-.1.1-.12.16-.02.06-.02.13,0,.2.01.07.04.12.06.17.01.02.02.04.03.05,0,0,0,.01,0,.01h0s0,0,0,0h0s0,0,0,0c0,0,0,0,0,0,0,0,0,0,0,.01,0,.01.01.03.03.05.02.04.06.09.1.14.04.04.09.07.15.08.05,0,.12,0,.2-.07l1.57-1.27-.07-.13-.02-.04.04-.03.14-.09.04-.03.03.03c.08.08.18.13.29.13.11,0,.21-.05.29-.13l.03-.03.04.03.14.09.04.03-.02.04-.07.13,1.57,1.27c.08.06.15.07.2.07.06,0,.11-.04.15-.08.04-.04.08-.09.1-.14.01-.02.02-.04.03-.05,0,0,0-.01,0-.01,0,0,0,0,0,0h0s0,0,0,0h0s0,0,0,0c0,0,0,0,0,0,0,0,0,0,0-.01,0-.01.02-.03.03-.05.02-.04.04-.1.06-.17.01-.06.01-.13,0-.19-.02-.06-.07-.12-.15-.17h0s0,0,0,0l-1.71-.96-.07.12-.03.05-.05-.04-.14-.1-.04-.02v-.04s.08-.18,0-.35h0c-.08-.17-.24-.22-.27-.23h-.04v-.23h.18l.15-2.17c0-.11-.02-.19-.06-.24-.04-.05-.09-.08-.14-.1-.05-.02-.11-.03-.15-.03-.02,0-.04,0-.05,0ZM589.99,206.48c.18,0,.33.16.33.36,0,.2-.15.36-.33.36-.18,0-.33-.16-.33-.36,0-.2.15-.36.33-.36Z"/>
      </g>
      <g id="casting_f3">
        <metadata><elementId>casting_f3</elementId></metadata>
        <rect x="488.87" y="250.61" width="6.68" height="6.68" rx=".89" ry=".89" fill="#82cceb" stroke="#000" stroke-width=".11"/>
        <path d="M492.25,251.28s.01,0,.02,0h0s0,0,0,0c0,0,.01,0,.02,0,.02,0,.04,0,.06,0,.05,0,.12,0,.19.04.07.03.14.07.19.15.05.08.08.18.08.31h0s-.16,2.22-.16,2.22v.05h-.18v.03c.07.03.21.1.3.27h0c.08.16.06.32.04.39l.06.04.06-.12.03-.05.05.03,1.77.99h0s0,0,0,0c.1.06.16.14.19.23.03.09.03.17.01.25s-.04.14-.07.19c-.01.02-.02.04-.03.06,0,0,0,.01,0,.02,0,0,0,0,0,0,0,0,0,0,0,0,0,0,0,.01,0,.02,0,.01-.02.04-.03.06-.03.05-.07.11-.12.16-.05.05-.12.1-.21.11-.09.01-.18-.01-.28-.09h0s-1.61-1.3-1.61-1.3l-.04-.03.02-.04.07-.13-.06-.04c-.09.08-.21.13-.34.13-.13,0-.25-.05-.34-.13l-.06.04.07.13.02.04-.04.03-1.61,1.3h0c-.1.08-.2.1-.28.09-.09-.01-.16-.06-.21-.11-.05-.05-.09-.11-.12-.16-.01-.02-.02-.04-.03-.06,0,0,0-.01,0-.02,0,0,0,0,0,0,0,0,0,0,0,0,0,0,0,0-.01-.02,0-.01-.02-.03-.03-.06-.02-.05-.05-.12-.07-.2-.02-.08-.02-.17.01-.25.03-.09.09-.17.2-.23h0s0,0,0,0l1.77-.99.05-.03.03.05.06.12.06-.04c-.01-.06-.03-.15,0-.26.06-.24.26-.36.34-.4v-.03h-.18v-.05s-.16-2.22-.16-2.22h0c0-.13.02-.23.08-.31.05-.07.12-.12.19-.14.07-.03.14-.03.19-.04.03,0,.05,0,.06,0ZM492.29,251.39s-.01,0-.01,0c0,0,0,0,0,0h0s0,0,0,0h0s0,0,0,0c0,0,0,0-.01,0-.01,0-.03,0-.05,0-.04,0-.1,0-.15.03-.05.02-.1.05-.14.1-.04.05-.06.13-.06.24h0l.15,2.17h.18v.22h-.03s-.25.13-.31.35h0c-.03.1,0,.19,0,.24v.04s-.02.02-.02.02l-.14.1-.05.03-.03-.05-.07-.12-1.72.96-.03.02c-.07.05-.1.1-.12.16-.02.06-.02.13,0,.2.01.07.04.12.06.17.01.02.02.04.03.05,0,0,0,.01,0,.01h0s0,0,0,0h0s0,0,0,0c0,0,0,0,0,0,0,0,0,0,0,.01,0,.01.01.03.03.05.02.04.06.09.1.14.04.04.09.07.15.08.05,0,.12,0,.2-.07l1.57-1.27-.07-.13-.02-.04.04-.03.14-.09.04-.03.03.03c.08.08.18.13.29.13.11,0,.21-.05.29-.13l.03-.03.04.03.14.09.04.03-.02.04-.07.13,1.57,1.27c.08.06.15.07.2.07.06,0,.11-.04.15-.08.04-.04.08-.09.1-.14.01-.02.02-.04.03-.05,0,0,0-.01,0-.01,0,0,0,0,0,0h0s0,0,0,0h0s0,0,0,0c0,0,0,0,0,0,0,0,0,0,0-.01,0-.01.02-.03.03-.05.02-.04.04-.1.06-.17.01-.06.01-.13,0-.19-.02-.06-.07-.12-.15-.17h0s0,0,0,0l-1.71-.96-.07.12-.03.05-.05-.04-.14-.1-.04-.02v-.04s.08-.18,0-.35h0c-.08-.17-.24-.22-.27-.23h-.04v-.23h.18l.15-2.17c0-.11-.02-.19-.06-.24-.04-.05-.09-.08-.14-.1-.05-.02-.11-.03-.15-.03-.02,0-.04,0-.05,0ZM492.26,254.28c.18,0,.33.16.33.36,0,.2-.15.36-.33.36-.18,0-.33-.16-.33-.36,0-.2.15-.36.33-.36Z"/>
      </g>


      <g id="VCRRN6AM_10">
        <metadata><elementId>VCRRN6AM_10</elementId></metadata>
        <rect x="603.16" y="315.55" width="6.68" height="6.68" rx=".89" ry=".89" fill="#ff0" stroke="#000" stroke-width=".11"/>
        <path d="M605,320.78h3.75" fill="none" stroke="#000" stroke-linecap="round" stroke-linejoin="round" stroke-width=".11"/>
        <path d="M608.75,320.78c.8-1.24.44-2.89-.8-3.69-1.24-.8-2.89-.44-3.69.8-.57.88-.57,2.01,0,2.89" fill="none" stroke="#000" stroke-linecap="round" stroke-linejoin="round" stroke-width=".11"/>
        <path d="M604.67,320.78h.33" fill="none" stroke="#000" stroke-linecap="round" stroke-linejoin="round" stroke-width=".11"/>
        <path d="M604.26,320.78h.41" fill="none" stroke="#000" stroke-linecap="round" stroke-linejoin="round" stroke-width=".11"/>
        <path d="M606.55,319.81c-.16,0-.3-.04-.41-.12-.11-.08-.2-.19-.25-.34-.06-.15-.09-.33-.09-.54,0-.18.02-.33.06-.47.04-.14.09-.25.16-.34.07-.09.16-.17.26-.21.1-.05.22-.07.35-.07.09,0,.18.02.27.05.09.03.18.08.25.15.02.02.03.03.04.06,0,.02,0,.04,0,.06,0,.02-.02.04-.03.05-.01.01-.03.02-.05.02-.02,0-.04,0-.07-.03-.07-.06-.13-.1-.2-.12-.07-.03-.14-.04-.21-.04-.13,0-.23.03-.32.09-.09.06-.15.16-.2.28-.04.12-.07.28-.07.47v.27h-.03c.01-.11.04-.2.1-.28.05-.08.12-.14.21-.19.08-.04.18-.06.28-.06.12,0,.23.03.32.08s.17.13.22.23c.05.1.08.21.08.33s-.03.24-.08.34c-.05.1-.13.18-.23.24-.1.06-.21.08-.34.08ZM606.54,319.61c.08,0,.16-.02.23-.06.07-.04.12-.09.15-.16.04-.07.06-.15.06-.24s-.02-.17-.06-.23c-.04-.07-.09-.12-.15-.16-.07-.04-.14-.06-.23-.06s-.16.02-.23.06c-.07.04-.12.09-.15.16-.04.07-.06.15-.06.23s.02.17.06.24c.04.07.09.12.15.16.07.04.14.06.23.06Z"/>
      </g>
      <g id="VCRRN6AM_9">
        <metadata><elementId>VCRRN6AM_9</elementId></metadata>
        <rect x="494.5" y="315.41" width="6.68" height="6.68" rx=".89" ry=".89" fill="#ff0" stroke="#000" stroke-width=".11"/>
        <path d="M496.34,320.64h3.75" fill="none" stroke="#000" stroke-linecap="round" stroke-linejoin="round" stroke-width=".11"/>
        <path d="M500.09,320.64c.8-1.24.44-2.89-.8-3.69-1.24-.8-2.89-.44-3.69.8-.57.88-.57,2.01,0,2.89" fill="none" stroke="#000" stroke-linecap="round" stroke-linejoin="round" stroke-width=".11"/>
        <path d="M496.01,320.64h.33" fill="none" stroke="#000" stroke-linecap="round" stroke-linejoin="round" stroke-width=".11"/>
        <path d="M495.6,320.64h.41" fill="none" stroke="#000" stroke-linecap="round" stroke-linejoin="round" stroke-width=".11"/>
        <path d="M497.89,319.67c-.16,0-.3-.04-.41-.12-.11-.08-.2-.19-.25-.34-.06-.15-.09-.33-.09-.54,0-.18.02-.33.06-.47.04-.14.09-.25.16-.34.07-.09.16-.17.26-.21.1-.05.22-.07.35-.07.09,0,.18.02.27.05.09.03.18.08.25.15.02.02.03.03.04.06,0,.02,0,.04,0,.06,0,.02-.02.04-.03.05-.01.01-.03.02-.05.02-.02,0-.04,0-.07-.03-.07-.06-.13-.1-.2-.12-.07-.03-.14-.04-.21-.04-.13,0-.23.03-.32.09-.09.06-.15.16-.2.28-.04.12-.07.28-.07.47v.27h-.03c.01-.11.04-.2.1-.28.05-.08.12-.14.21-.19.08-.04.18-.06.28-.06.12,0,.23.03.32.08s.17.13.22.23c.05.1.08.21.08.33s-.03.24-.08.34c-.05.1-.13.18-.23.24-.1.06-.21.08-.34.08ZM497.88,319.46c.08,0,.16-.02.23-.06.07-.04.12-.09.15-.16.04-.07.06-.15.06-.24s-.02-.17-.06-.23c-.04-.07-.09-.12-.15-.16-.07-.04-.14-.06-.23-.06s-.16.02-.23.06c-.07.04-.12.09-.15.16-.04.07-.06.15-.06.23s.02.17.06.24c.04.07.09.12.15.16.07.04.14.06.23.06Z"/>
      </g>
      <g id="VCRRN6AM_6">
        <metadata><elementId>VCRRN6AM_6</elementId></metadata>
        <rect x="580.89" y="256.71" width="6.68" height="6.68" rx=".89" ry=".89" fill="#ff0" stroke="#000" stroke-width=".11"/>
        <path d="M582.73,261.94h3.75" fill="none" stroke="#000" stroke-linecap="round" stroke-linejoin="round" stroke-width=".11"/>
        <path d="M586.48,261.94c.8-1.24.44-2.89-.8-3.69-1.24-.8-2.89-.44-3.69.8-.57.88-.57,2.01,0,2.89" fill="none" stroke="#000" stroke-linecap="round" stroke-linejoin="round" stroke-width=".11"/>
        <path d="M582.4,261.94h.33" fill="none" stroke="#000" stroke-linecap="round" stroke-linejoin="round" stroke-width=".11"/>
        <path d="M581.99,261.94h.41" fill="none" stroke="#000" stroke-linecap="round" stroke-linejoin="round" stroke-width=".11"/>
        <path d="M584.28,260.97c-.16,0-.3-.04-.41-.12-.11-.08-.2-.19-.25-.34-.06-.15-.09-.33-.09-.54,0-.18.02-.33.06-.47.04-.14.09-.25.16-.34.07-.09.16-.17.26-.21.1-.05.22-.07.35-.07.09,0,.18.02.27.05.09.03.18.08.25.15.02.02.03.03.04.06,0,.02,0,.04,0,.06,0,.02-.02.04-.03.05-.01.01-.03.02-.05.02-.02,0-.04,0-.07-.03-.07-.06-.13-.1-.2-.12-.07-.03-.14-.04-.21-.04-.13,0-.23.03-.32.09-.09.06-.15.16-.2.28-.04.12-.07.28-.07.47v.27h-.03c.01-.11.04-.2.1-.28.05-.08.12-.14.21-.19.08-.04.18-.06.28-.06.12,0,.23.03.32.08s.17.13.22.23c.05.1.08.21.08.33s-.03.24-.08.34c-.05.1-.13.18-.23.24-.1.06-.21.08-.34.08ZM584.27,260.77c.08,0,.16-.02.23-.06.07-.04.12-.09.15-.16.04-.07.06-.15.06-.24s-.02-.17-.06-.23c-.04-.07-.09-.12-.15-.16-.07-.04-.14-.06-.23-.06s-.16.02-.23.06c-.07.04-.12.09-.15.16-.04.07-.06.15-.06.23s.02.17.06.24c.04.07.09.12.15.16.07.04.14.06.23.06Z"/>
      </g>



      <!--      Casting Lights and Hidden-->
      <g id="casting_rl_1">
        <metadata><elementId>casting_rl_1</elementId></metadata>
        <rect x="476.85" y="153.41" width="6.44" height="6.44" rx=".86" ry=".86" fill="#ff0" stroke="#000" stroke-width=".11"/>
        <path d="M478.62,158.45h3.61" fill="none" stroke="#000" stroke-linecap="round" stroke-linejoin="round" stroke-width=".11"/>
        <path d="M482.23,158.45c.77-1.2.42-2.79-.77-3.55-1.2-.77-2.79-.42-3.55.77-.55.85-.55,1.93,0,2.79" fill="none" stroke="#000" stroke-linecap="round" stroke-linejoin="round" stroke-width=".11"/>
        <path d="M478.3,158.45h.32" fill="none" stroke="#000" stroke-linecap="round" stroke-linejoin="round" stroke-width=".11"/>
        <path d="M477.9,158.45h.4" fill="none" stroke="#000" stroke-linecap="round" stroke-linejoin="round" stroke-width=".11"/>
        <path d="M480.11,157.51c-.15,0-.29-.04-.4-.11-.11-.08-.19-.19-.25-.33-.06-.14-.08-.32-.08-.52,0-.17.02-.32.05-.45.04-.13.09-.24.16-.33.07-.09.15-.16.25-.21.1-.05.21-.07.33-.07.09,0,.17.02.26.05.09.03.17.08.24.14.02.01.03.03.04.06,0,.02,0,.04,0,.06,0,.02-.02.03-.03.05-.01.01-.03.02-.05.02-.02,0-.04,0-.06-.03-.06-.05-.13-.09-.2-.11-.07-.02-.13-.04-.2-.04-.12,0-.22.03-.31.09-.08.06-.15.15-.19.27-.04.12-.06.27-.06.45v.26h-.03c.01-.11.04-.2.09-.27.05-.08.12-.14.2-.18.08-.04.17-.06.27-.06.12,0,.22.03.31.08s.16.13.21.22c.05.09.08.2.08.32s-.03.23-.08.33c-.05.1-.13.17-.22.23-.09.05-.2.08-.33.08ZM480.1,157.32c.08,0,.15-.02.22-.05.06-.04.11-.09.15-.15.04-.07.05-.14.05-.23s-.02-.16-.05-.23c-.04-.07-.08-.12-.15-.15-.06-.04-.14-.06-.22-.06s-.15.02-.22.06c-.06.04-.11.09-.15.15-.04.07-.05.14-.05.23s.02.16.05.23c.04.07.08.12.15.15.06.04.14.05.22.05Z"/>
      </g>

      <g id="casting_rl_2">
        <metadata><elementId>casting_rl_2</elementId></metadata>
        <rect x="581.32" y="153.46" width="6.68" height="6.68" rx=".89" ry=".89" fill="#ff0" stroke="#000" stroke-width=".11"/>
        <path d="M583.15,158.69h3.75" fill="none" stroke="#000" stroke-linecap="round" stroke-linejoin="round" stroke-width=".11"/>
        <path d="M586.91,158.69c.8-1.24.44-2.89-.8-3.69-1.24-.8-2.89-.44-3.69.8-.57.88-.57,2.01,0,2.89" fill="none" stroke="#000" stroke-linecap="round" stroke-linejoin="round" stroke-width=".11"/>
        <path d="M582.82,158.69h.33" fill="none" stroke="#000" stroke-linecap="round" stroke-linejoin="round" stroke-width=".11"/>
        <path d="M582.41,158.69h.41" fill="none" stroke="#000" stroke-linecap="round" stroke-linejoin="round" stroke-width=".11"/>
        <path d="M584.7,157.72c-.16,0-.3-.04-.41-.12-.11-.08-.2-.19-.25-.34-.06-.15-.09-.33-.09-.54,0-.18.02-.33.06-.47.04-.14.09-.25.16-.34.07-.09.16-.17.26-.21.1-.05.22-.07.35-.07.09,0,.18.02.27.05.09.03.18.08.25.15.02.02.03.03.04.06,0,.02,0,.04,0,.06,0,.02-.02.04-.03.05-.01.01-.03.02-.05.02-.02,0-.04,0-.07-.03-.07-.06-.13-.1-.2-.12-.07-.03-.14-.04-.21-.04-.13,0-.23.03-.32.09-.09.06-.15.16-.2.28-.04.12-.07.28-.07.47v.27h-.03c.01-.11.04-.2.1-.28.05-.08.12-.14.21-.19.08-.04.18-.06.28-.06.12,0,.23.03.32.08s.17.13.22.23c.05.1.08.21.08.33s-.03.24-.08.34c-.05.1-.13.18-.23.24-.1.06-.21.08-.34.08ZM584.69,157.52c.08,0,.16-.02.23-.06.07-.04.12-.09.15-.16.04-.07.06-.15.06-.24s-.02-.17-.06-.23c-.04-.07-.09-.12-.15-.16-.07-.04-.14-.06-.23-.06s-.16.02-.23.06c-.07.04-.12.09-.15.16-.04.07-.06.15-.06.23s.02.17.06.24c.04.07.09.12.15.16.07.04.14.06.23.06Z"/>
      </g>

      <g id="casting_rl_3">
        <metadata><elementId>casting_rl_3</elementId></metadata>
        <rect x="455.96" y="215.34" width="6.68" height="6.68" rx=".89" ry=".89" fill="#ff0" stroke="#000" stroke-width=".11"/>
        <path d="M457.79,220.57h3.75" fill="none" stroke="#000" stroke-linecap="round" stroke-linejoin="round" stroke-width=".11"/>
        <path d="M461.54,220.57c.8-1.24.44-2.89-.8-3.69-1.24-.8-2.89-.44-3.69.8-.57.88-.57,2.01,0,2.89" fill="none" stroke="#000" stroke-linecap="round" stroke-linejoin="round" stroke-width=".11"/>
        <path d="M457.46,220.57h.33" fill="none" stroke="#000" stroke-linecap="round" stroke-linejoin="round" stroke-width=".11"/>
        <path d="M457.05,220.57h.41" fill="none" stroke="#000" stroke-linecap="round" stroke-linejoin="round" stroke-width=".11"/>
        <path d="M459.34,219.6c-.16,0-.3-.04-.41-.12-.11-.08-.2-.19-.25-.34-.06-.15-.09-.33-.09-.54,0-.18.02-.33.06-.47.04-.14.09-.25.16-.34.07-.09.16-.17.26-.21.1-.05.22-.07.35-.07.09,0,.18.02.27.05.09.03.18.08.25.15.02.02.03.03.04.06,0,.02,0,.04,0,.06,0,.02-.02.04-.03.05-.01.01-.03.02-.05.02-.02,0-.04,0-.07-.03-.07-.06-.13-.1-.2-.12-.07-.03-.14-.04-.21-.04-.13,0-.23.03-.32.09-.09.06-.15.16-.2.28-.04.12-.07.28-.07.47v.27h-.03c.01-.11.04-.2.1-.28.05-.08.12-.14.21-.19.08-.04.18-.06.28-.06.12,0,.23.03.32.08s.17.13.22.23c.05.1.08.21.08.33s-.03.24-.08.34c-.05.1-.13.18-.23.24-.1.06-.21.08-.34.08ZM459.33,219.4c.08,0,.16-.02.23-.06.07-.04.12-.09.15-.16.04-.07.06-.15.06-.24s-.02-.17-.06-.23c-.04-.07-.09-.12-.15-.16-.07-.04-.14-.06-.23-.06s-.16.02-.23.06c-.07.04-.12.09-.15.16-.04.07-.06.15-.06.23s.02.17.06.24c.04.07.09.12.15.16.07.04.14.06.23.06Z"/>
      </g>
      <g id="casting_rh_3">
        <metadata><elementId>casting_rh_3</elementId></metadata>
        <rect x="448.6" y="211.36" width="6.68" height="6.68" rx=".89" ry=".89" fill="#f5a1bd" stroke="#000" stroke-width=".11"/>
        <path d="M451.47,213.5l-.18.18c.34.34.89.34,1.23,0l-.18-.18c-.24.24-.63.24-.88,0ZM451.12,213.85l-.17.17c.53.53,1.4.53,1.93,0l-.17-.17c-.44.44-1.14.44-1.58,0Z"/>
        <path d="M452.18,214.92c0,.06-.02.11-.06.15-.04.04-.09.06-.15.06s-.11-.02-.15-.06c-.04-.04-.06-.1-.06-.15s.02-.11.06-.15c.04-.04.09-.06.15-.06s.11.02.15.06c.04.04.06.1.06.15ZM451.89,216.03l.27.28s.02.02.02.04l.15.38s0,.06,0,.08c-.01.03-.03.05-.06.06-.03.01-.06,0-.08,0-.03-.01-.05-.03-.06-.06l-.14-.36-.47-.48s-.02-.03-.03-.04c0-.02,0-.03,0-.05l.04-.34c-.09.09-.16.22-.21.4,0,.01-.01.03-.02.04,0,.01-.02.02-.03.03-.01,0-.03.01-.04.01-.01,0-.03,0-.04,0-.01,0-.03-.01-.04-.02-.01,0-.02-.02-.03-.03,0-.01-.01-.03-.01-.04,0-.01,0-.03,0-.04.1-.32.26-.56.54-.67h0c.07-.03.14-.03.21,0,.06.03.11.09.14.15l.03.08c.03.06.05.11.07.15.03.06.05.1.08.13.02.03.04.04.07.05.03.01.07.02.13.02.01,0,.03,0,.04,0,.01,0,.02.01.03.02,0,.01.02.02.02.04,0,.01,0,.03,0,.04,0,.01,0,.03,0,.04,0,.01-.01.02-.02.03-.01,0-.02.02-.04.02s-.03,0-.04,0c-.08,0-.14-.01-.2-.04-.06-.03-.11-.06-.15-.11-.03-.03-.05-.07-.07-.11l-.06.28Z" fill="none" stroke="#000" stroke-width=".11"/>
        <path d="M451.5,216.15l.17.17-.08.27s-.02.04-.03.05l-.26.21s-.02.01-.04.02c-.01,0-.03,0-.04,0-.01,0-.03,0-.04-.01s-.02-.02-.03-.03c0-.01-.01-.02-.02-.04,0-.01,0-.03,0-.04,0-.01,0-.03.01-.04,0-.01.02-.02.03-.03l.24-.19.07-.25.02-.1Z" fill="none" stroke="#000" stroke-width=".11"/>
        <path d="M451.96,212.54l.07.02.16.04.17.04.27.07.09.02h0s0,0,0,0h0s0,0,0,0h0s0,0,0,0h0s0,0,0,0h0s0,0,0,0h0s0,0,0,0h0s0,0,0,0h0s0,0,0,0h0v.41h0s0,0,0,0h0s0,0,0,0h0s0,0,0,0h0s0,0,0,0h0s0,0,0,0h0s0,0,0,0h0s0,0,0,0h0s0,0,0,0h0s-.27.07-.27.07l-.17.05-.16.04-.08.02-.07.02h0s-.01,0-.01,0h-.01s-.01,0-.01,0h-.01s-.01,0-.01,0h-.01s-.01,0-.01,0h-.01s-.01,0-.01,0h-.01s0,0,0,0l-.07-.02-.16-.04-.17-.04-.27-.07-.09-.02h0s0,0,0,0h0s0,0,0,0h0s0,0,0,0h0s0,0,0,0h0s0,0,0,0h0s0,0,0,0h0s0,0,0,0h0s0,0,0,0h0v-.41h0s0,0,0,0h0s0,0,0,0h0s0,0,0,0h0s0,0,0,0h0s0,0,0,0h0s0,0,0,0h0s0,0,0,0h0s0,0,0,0h0s.27-.07.27-.07l.17-.04.16-.04.08-.02.07-.02h0s.01,0,.01,0h.01s.01,0,.01,0h.01s.01,0,.01,0h.01s.01,0,.01,0h.01s.01,0,.01,0h.01s0,0,0,0Z" fill-rule="evenodd"/>
      </g>


      <g id="casting_rl_4">
        <metadata><elementId>casting_rl_4</elementId></metadata>
        <rect x="515.59" y="212.68" width="6.68" height="6.68" rx=".89" ry=".89" fill="#ff0" stroke="#000" stroke-width=".11"/>
        <path d="M517.43,217.91h3.75" fill="none" stroke="#000" stroke-linecap="round" stroke-linejoin="round" stroke-width=".11"/>
        <path d="M521.18,217.91c.8-1.24.44-2.89-.8-3.69-1.24-.8-2.89-.44-3.69.8-.57.88-.57,2.01,0,2.89" fill="none" stroke="#000" stroke-linecap="round" stroke-linejoin="round" stroke-width=".11"/>
        <path d="M517.1,217.91h.33" fill="none" stroke="#000" stroke-linecap="round" stroke-linejoin="round" stroke-width=".11"/>
        <path d="M516.68,217.91h.41" fill="none" stroke="#000" stroke-linecap="round" stroke-linejoin="round" stroke-width=".11"/>
        <path d="M518.98,216.94c-.16,0-.3-.04-.41-.12-.11-.08-.2-.19-.25-.34-.06-.15-.09-.33-.09-.54,0-.18.02-.33.06-.47.04-.14.09-.25.16-.34.07-.09.16-.17.26-.21.1-.05.22-.07.35-.07.09,0,.18.02.27.05.09.03.18.08.25.15.02.02.03.03.04.06,0,.02,0,.04,0,.06,0,.02-.02.04-.03.05-.01.01-.03.02-.05.02-.02,0-.04,0-.07-.03-.07-.06-.13-.1-.2-.12-.07-.03-.14-.04-.21-.04-.13,0-.23.03-.32.09-.09.06-.15.16-.2.28-.04.12-.07.28-.07.47v.27h-.03c.01-.11.04-.2.1-.28.05-.08.12-.14.21-.19.08-.04.18-.06.28-.06.12,0,.23.03.32.08s.17.13.22.23c.05.1.08.21.08.33s-.03.24-.08.34c-.05.1-.13.18-.23.24-.1.06-.21.08-.34.08ZM518.96,216.73c.08,0,.16-.02.23-.06.07-.04.12-.09.15-.16.04-.07.06-.15.06-.24s-.02-.17-.06-.23c-.04-.07-.09-.12-.15-.16-.07-.04-.14-.06-.23-.06s-.16.02-.23.06c-.07.04-.12.09-.15.16-.04.07-.06.15-.06.23s.02.17.06.24c.04.07.09.12.15.16.07.04.14.06.23.06Z"/>
      </g>
      <g id="casting_rh_4">
        <metadata><elementId>casting_rh_4</elementId></metadata>
        <rect x="525" y="211.96" width="6.68" height="6.68" rx=".89" ry=".89" fill="#f5a1bd" stroke="#000" stroke-width=".11"/>
        <path d="M528.57,215.52c0,.06-.02.11-.06.15-.04.04-.09.06-.15.06s-.11-.02-.15-.06c-.04-.04-.06-.1-.06-.15s.02-.11.06-.15c.04-.04.09-.06.15-.06s.11.02.15.06c.04.04.06.1.06.15ZM528.28,216.62l.27.28s.02.02.02.04l.15.38s0,.06,0,.08c-.01.03-.03.05-.06.06-.03.01-.06,0-.08,0-.03-.01-.05-.03-.06-.06l-.14-.36-.47-.48s-.02-.03-.03-.04c0-.02,0-.03,0-.05l.04-.34c-.09.09-.16.22-.21.4,0,.01-.01.03-.02.04,0,.01-.02.02-.03.03-.01,0-.03.01-.04.01-.01,0-.03,0-.04,0-.01,0-.03-.01-.04-.02-.01,0-.02-.02-.03-.03,0-.01-.01-.03-.01-.04,0-.01,0-.03,0-.04.1-.32.26-.56.54-.67h0c.07-.03.14-.03.21,0,.06.03.11.09.14.15l.03.08c.03.06.05.11.07.15.03.06.05.1.08.13.02.03.04.04.07.05.03.01.07.02.13.02.01,0,.03,0,.04,0,.01,0,.02.01.03.02,0,.01.02.02.02.04,0,.01,0,.03,0,.04,0,.01,0,.03,0,.04,0,.01-.01.02-.02.03-.01,0-.02.02-.04.02s-.03,0-.04,0c-.08,0-.14-.01-.2-.04-.06-.03-.11-.06-.15-.11-.03-.03-.05-.07-.07-.11l-.06.28Z" fill="none" stroke="#000" stroke-width=".11"/>
        <path d="M527.86,214.1l-.18.18c.34.34.89.34,1.23,0l-.18-.18c-.24.24-.63.24-.88,0ZM527.51,214.45l-.17.17c.53.53,1.4.53,1.93,0l-.17-.17c-.44.44-1.14.44-1.58,0Z"/>
        <path d="M527.89,216.75l.17.17-.08.27s-.02.04-.03.05l-.26.21s-.02.01-.04.02c-.01,0-.03,0-.04,0-.01,0-.03,0-.04-.01s-.02-.02-.03-.03c0-.01-.01-.02-.02-.04,0-.01,0-.03,0-.04,0-.01,0-.03.01-.04,0-.01.02-.02.03-.03l.24-.19.07-.25.02-.1Z" fill="none" stroke="#000" stroke-width=".11"/>
        <path d="M528.35,213.14l.07.02.16.04.17.04.27.07.09.02h0s0,0,0,0h0s0,0,0,0h0s0,0,0,0h0s0,0,0,0h0s0,0,0,0h0s0,0,0,0h0s0,0,0,0h0s0,0,0,0h0v.41h0s0,0,0,0h0s0,0,0,0h0s0,0,0,0h0s0,0,0,0h0s0,0,0,0h0s0,0,0,0h0s0,0,0,0h0s0,0,0,0h0s-.27.07-.27.07l-.17.05-.16.04-.08.02-.07.02h0s-.01,0-.01,0h-.01s-.01,0-.01,0h-.01s-.01,0-.01,0h-.01s-.01,0-.01,0h-.01s-.01,0-.01,0h-.01s0,0,0,0l-.07-.02-.16-.04-.17-.04-.27-.07-.09-.02h0s0,0,0,0h0s0,0,0,0h0s0,0,0,0h0s0,0,0,0h0s0,0,0,0h0s0,0,0,0h0s0,0,0,0h0s0,0,0,0h0v-.41h0s0,0,0,0h0s0,0,0,0h0s0,0,0,0h0s0,0,0,0h0s0,0,0,0h0s0,0,0,0h0s0,0,0,0h0s0,0,0,0h0s.27-.07.27-.07l.17-.04.16-.04.08-.02.07-.02h0s.01,0,.01,0h.01s.01,0,.01,0h.01s.01,0,.01,0h.01s.01,0,.01,0h.01s.01,0,.01,0h.01s0,0,0,0Z" fill-rule="evenodd"/>
      </g>

      <g id="casting_rl_5">
        <metadata><elementId>casting_rl_5</elementId></metadata>
        <rect x="477.78" y="278.71" width="6.68" height="6.68" rx=".89" ry=".89" fill="#ff0" stroke="#000" stroke-width=".11"/>
        <path d="M479.62,283.94h3.75" fill="none" stroke="#000" stroke-linecap="round" stroke-linejoin="round" stroke-width=".11"/>
        <path d="M483.37,283.94c.8-1.24.44-2.89-.8-3.69-1.24-.8-2.89-.44-3.69.8-.57.88-.57,2.01,0,2.89" fill="none" stroke="#000" stroke-linecap="round" stroke-linejoin="round" stroke-width=".11"/>
        <path d="M479.29,283.94h.33" fill="none" stroke="#000" stroke-linecap="round" stroke-linejoin="round" stroke-width=".11"/>
        <path d="M478.87,283.94h.41" fill="none" stroke="#000" stroke-linecap="round" stroke-linejoin="round" stroke-width=".11"/>
        <path d="M481.17,282.97c-.16,0-.3-.04-.41-.12-.11-.08-.2-.19-.25-.34-.06-.15-.09-.33-.09-.54,0-.18.02-.33.06-.47.04-.14.09-.25.16-.34.07-.09.16-.17.26-.21.1-.05.22-.07.35-.07.09,0,.18.02.27.05.09.03.18.08.25.15.02.02.03.03.04.06,0,.02,0,.04,0,.06,0,.02-.02.04-.03.05-.01.01-.03.02-.05.02-.02,0-.04,0-.07-.03-.07-.06-.13-.1-.2-.12-.07-.03-.14-.04-.21-.04-.13,0-.23.03-.32.09-.09.06-.15.16-.2.28-.04.12-.07.28-.07.47v.27h-.03c.01-.11.04-.2.1-.28.05-.08.12-.14.21-.19.08-.04.18-.06.28-.06.12,0,.23.03.32.08s.17.13.22.23c.05.1.08.21.08.33s-.03.24-.08.34c-.05.1-.13.18-.23.24-.1.06-.21.08-.34.08ZM481.15,282.76c.08,0,.16-.02.23-.06.07-.04.12-.09.15-.16.04-.07.06-.15.06-.24s-.02-.17-.06-.23c-.04-.07-.09-.12-.15-.16-.07-.04-.14-.06-.23-.06s-.16.02-.23.06c-.07.04-.12.09-.15.16-.04.07-.06.15-.06.23s.02.17.06.24c.04.07.09.12.15.16.07.04.14.06.23.06Z"/>
      </g>
      <g id="casting_rh_5">
        <metadata><elementId>casting_rh_5</elementId></metadata>
        <rect x="485.24" y="275.99" width="6.68" height="6.68" rx=".89" ry=".89" fill="#f5a1bd" stroke="#000" stroke-width=".11"/>
        <path d="M488.1,278.13l-.18.18c.34.34.89.34,1.23,0l-.18-.18c-.24.24-.63.24-.88,0ZM487.75,278.48l-.17.17c.53.53,1.4.53,1.93,0l-.17-.17c-.44.44-1.14.44-1.58,0Z"/>
        <path d="M488.81,279.55c0,.06-.02.11-.06.15-.04.04-.09.06-.15.06s-.11-.02-.15-.06c-.04-.04-.06-.1-.06-.15s.02-.11.06-.15c.04-.04.09-.06.15-.06s.11.02.15.06c.04.04.06.1.06.15ZM488.52,280.66l.27.28s.02.02.02.04l.15.38s0,.06,0,.08c-.01.03-.03.05-.06.06-.03.01-.06,0-.08,0-.03-.01-.05-.03-.06-.06l-.14-.36-.47-.48s-.02-.03-.03-.04c0-.02,0-.03,0-.05l.04-.34c-.09.09-.16.22-.21.4,0,.01-.01.03-.02.04,0,.01-.02.02-.03.03-.01,0-.03.01-.04.01-.01,0-.03,0-.04,0-.01,0-.03-.01-.04-.02-.01,0-.02-.02-.03-.03,0-.01-.01-.03-.01-.04,0-.01,0-.03,0-.04.1-.32.26-.56.54-.67h0c.07-.03.14-.03.21,0,.06.03.11.09.14.15l.03.08c.03.06.05.11.07.15.03.06.05.1.08.13.02.03.04.04.07.05.03.01.07.02.13.02.01,0,.03,0,.04,0,.01,0,.02.01.03.02,0,.01.02.02.02.04,0,.01,0,.03,0,.04,0,.01,0,.03,0,.04,0,.01-.01.02-.02.03-.01,0-.02.02-.04.02s-.03,0-.04,0c-.08,0-.14-.01-.2-.04-.06-.03-.11-.06-.15-.11-.03-.03-.05-.07-.07-.11l-.06.28Z" fill="none" stroke="#000" stroke-width=".11"/>
        <path d="M488.13,280.78l.17.17-.08.27s-.02.04-.03.05l-.26.21s-.02.01-.04.02c-.01,0-.03,0-.04,0-.01,0-.03,0-.04-.01s-.02-.02-.03-.03c0-.01-.01-.02-.02-.04,0-.01,0-.03,0-.04,0-.01,0-.03.01-.04,0-.01.02-.02.03-.03l.24-.19.07-.25.02-.1Z" fill="none" stroke="#000" stroke-width=".11"/>
        <path d="M488.59,277.17l.07.02.16.04.17.04.27.07.09.02h0s0,0,0,0h0s0,0,0,0h0s0,0,0,0h0s0,0,0,0h0s0,0,0,0h0s0,0,0,0h0s0,0,0,0h0s0,0,0,0h0v.41h0s0,0,0,0h0s0,0,0,0h0s0,0,0,0h0s0,0,0,0h0s0,0,0,0h0s0,0,0,0h0s0,0,0,0h0s0,0,0,0h0s-.27.07-.27.07l-.17.05-.16.04-.08.02-.07.02h0s-.01,0-.01,0h-.01s-.01,0-.01,0h-.01s-.01,0-.01,0h-.01s-.01,0-.01,0h-.01s-.01,0-.01,0h-.01s0,0,0,0l-.07-.02-.16-.04-.17-.04-.27-.07-.09-.02h0s0,0,0,0h0s0,0,0,0h0s0,0,0,0h0s0,0,0,0h0s0,0,0,0h0s0,0,0,0h0s0,0,0,0h0s0,0,0,0h0v-.41h0s0,0,0,0h0s0,0,0,0h0s0,0,0,0h0s0,0,0,0h0s0,0,0,0h0s0,0,0,0h0s0,0,0,0h0s0,0,0,0h0s.27-.07.27-.07l.17-.04.16-.04.08-.02.07-.02h0s.01,0,.01,0h.01s.01,0,.01,0h.01s.01,0,.01,0h.01s.01,0,.01,0h.01s.01,0,.01,0h.01s0,0,0,0Z" fill-rule="evenodd"/>
      </g>
      <g id="casting_rl_6">
        <metadata><elementId>casting_rl_6</elementId></metadata>
        <rect x="554.97" y="270.01" width="6.68" height="6.68" rx=".89" ry=".89" fill="#ff0" stroke="#000" stroke-width=".11"/>
        <path d="M556.81,275.24h3.75" fill="none" stroke="#000" stroke-linecap="round" stroke-linejoin="round" stroke-width=".11"/>
        <path d="M560.56,275.24c.8-1.24.44-2.89-.8-3.69-1.24-.8-2.89-.44-3.69.8-.57.88-.57,2.01,0,2.89" fill="none" stroke="#000" stroke-linecap="round" stroke-linejoin="round" stroke-width=".11"/>
        <path d="M556.48,275.24h.33" fill="none" stroke="#000" stroke-linecap="round" stroke-linejoin="round" stroke-width=".11"/>
        <path d="M556.06,275.24h.41" fill="none" stroke="#000" stroke-linecap="round" stroke-linejoin="round" stroke-width=".11"/>
        <path d="M558.36,274.27c-.16,0-.3-.04-.41-.12-.11-.08-.2-.19-.25-.34-.06-.15-.09-.33-.09-.54,0-.18.02-.33.06-.47.04-.14.09-.25.16-.34.07-.09.16-.17.26-.21.1-.05.22-.07.35-.07.09,0,.18.02.27.05.09.03.18.08.25.15.02.02.03.03.04.06,0,.02,0,.04,0,.06,0,.02-.02.04-.03.05-.01.01-.03.02-.05.02-.02,0-.04,0-.07-.03-.07-.06-.13-.1-.2-.12-.07-.03-.14-.04-.21-.04-.13,0-.23.03-.32.09-.09.06-.15.16-.2.28-.04.12-.07.28-.07.47v.27h-.03c.01-.11.04-.2.1-.28.05-.08.12-.14.21-.19.08-.04.18-.06.28-.06.12,0,.23.03.32.08s.17.13.22.23c.05.1.08.21.08.33s-.03.24-.08.34c-.05.1-.13.18-.23.24-.1.06-.21.08-.34.08ZM558.34,274.07c.08,0,.16-.02.23-.06.07-.04.12-.09.15-.16.04-.07.06-.15.06-.24s-.02-.17-.06-.23c-.04-.07-.09-.12-.15-.16-.07-.04-.14-.06-.23-.06s-.16.02-.23.06c-.07.04-.12.09-.15.16-.04.07-.06.15-.06.23s.02.17.06.24c.04.07.09.12.15.16.07.04.14.06.23.06Z"/>
      </g>



      <!-- AC & Exhaust -->

      <g id="casting_ex_4">
        <metadata><elementId>casting_ex_4</elementId></metadata>
        <rect x="618.59" y="201.82" width="12" height="12" rx="1.6" ry="1.6" fill="#82cceb" stroke="#000" stroke-width=".2"/>
        <path d="M623.1,207.33c.11-.32.31-.59.57-.78-.28-.64-.42-1.39-.39-2.11,0-.1-.08-.25-.29-.16-.42.18-.79.46-1.12.77-.32.29-.39.76-.15,1.05.4.48.86.93,1.38,1.23Z" fill="none" stroke="#000" stroke-width=".2"/>
        <path d="M625.23,206.39c.42-.56,1-1.06,1.64-1.39.09-.04.18-.2,0-.33-.37-.27-.79-.45-1.23-.59-.41-.13-.86.04-.99.4-.22.59-.37,1.21-.38,1.81.33-.07.66-.03.96.11Z" fill="none" stroke="#000" stroke-width=".2"/>
        <path d="M627.52,206.2c-.62.11-1.23.28-1.76.58.22.25.36.56.39.89.69.08,1.41.33,2.02.72.08.05.26.06.29-.17.05-.46,0-.91-.1-1.36-.1-.42-.46-.72-.84-.66Z" fill="none" stroke="#000" stroke-width=".2"/>
        <path d="M626.07,208.31c-.11.32-.31.59-.57.78.28.64.42,1.39.39,2.11,0,.1.08.25.29.16.42-.18.79-.46,1.12-.77.32-.29.39-.76.15-1.05-.4-.48-.86-.93-1.38-1.23Z" fill="none" stroke="#000" stroke-width=".2"/>
        <path d="M623.94,209.25c-.42.56-1,1.06-1.64,1.39-.08.04-.18.2,0,.33.37.27.79.45,1.23.59.41.13.86-.04.99-.4.22-.59.37-1.21.38-1.81-.33.07-.66.03-.96-.11Z" fill="none" stroke="#000" stroke-width=".2"/>
        <path d="M623.03,207.97c-.69-.08-1.41-.33-2.02-.72-.08-.05-.26-.06-.29.17-.05.46,0,.91.1,1.36.09.42.46.72.84.66.62-.11,1.23-.28,1.76-.58-.22-.25-.36-.56-.39-.89Z" fill="none" stroke="#000" stroke-width=".2"/>
        <path d="M624.59,206.69c-.63,0-1.13.51-1.13,1.13s.51,1.13,1.13,1.13,1.13-.51,1.13-1.13c0-.63-.51-1.13-1.13-1.13Z"/>
        <circle cx="620.59" cy="203.98" r=".4"/>
        <circle cx="628.59" cy="203.82" r=".4"/>
        <circle cx="628.59" cy="211.82" r=".4"/>
        <circle cx="620.59" cy="211.82" r=".4"/>
        <rect x="619.79" y="203.02" width="9.6" height="9.6" rx=".8" ry=".8" fill="none" stroke="#000" stroke-width=".2"/>
      </g>
      <g id="casting_ac_6">
        <metadata><elementId>casting_ac_6</elementId></metadata>
        <rect x="616.05" y="277.73" width="6.68" height="6.68" rx=".89" ry=".89" transform="translate(338.32 900.47) rotate(-90)" fill="#d86dcd" stroke="#000" stroke-width=".11"/>
        <path d="M621.88,280.24h.06s-.06,0-.06,0ZM621.88,280.71v.06s.06,0,.06,0v-.06s-.06,0-.06,0ZM621.8,280.71v.06s0-.06,0-.06ZM621.56,280.95h-.06,0s.06,0,.06,0ZM621.8,281.19v.06s0-.06,0-.06ZM621.88,281.18h.06s0-.06,0-.06h-.06s0,.06,0,.06ZM619.17,279.14v-.06s0,.06,0,.06ZM620.75,279.13v.06c.58,0,1.06.47,1.07,1.05h.06s.06,0,.06,0c0-.65-.53-1.17-1.18-1.16v.06ZM621.88,280.24h-.06s0,.47,0,.47h.06s.06,0,.06,0v-.47s-.06,0-.06,0ZM621.88,280.71v-.06s-.08,0-.08,0v.06s0,.06,0,.06h.08s0-.06,0-.06ZM621.8,280.71v-.06c-.16,0-.29.13-.29.3h.06s.06,0,.06,0c0-.1.08-.18.18-.18v-.06ZM621.56,280.95h-.06c0,.16.13.29.3.29v-.06s0-.06,0-.06c-.1,0-.18-.08-.18-.18h-.06ZM621.8,281.19v.06s.08,0,.08,0v-.06s0-.06,0-.06h-.08s0,.06,0,.06ZM621.88,281.18h-.06s0,.63,0,.63h.06s.06,0,.06,0v-.63s-.06,0-.06,0ZM621.89,281.82h-.06c0,.58-.47,1.06-1.05,1.07v.06s0,.06,0,.06c.65,0,1.17-.53,1.16-1.18h-.06ZM620.78,282.94v-.06s-1.58.01-1.58.01v.06s0,.06,0,.06h1.58s0-.07,0-.07ZM619.2,282.95v-.06c-.58,0-1.06-.47-1.07-1.05h-.06s-.06,0-.06,0c0,.65.53,1.17,1.18,1.16v-.06ZM618.08,281.84h.06s-.01-1.58-.01-1.58h-.06s-.06,0-.06,0v1.58s.07,0,.07,0ZM618.07,280.27h.06c0-.58.47-1.06,1.05-1.07v-.06s0-.06,0-.06c-.65,0-1.17.53-1.16,1.18h.06ZM619.17,279.14v.06s1.58-.01,1.58-.01v-.06s0-.06,0-.06h-1.58s0,.07,0,.07Z"/>
        <rect x="618.55" y="279.61" width="2.85" height="2.85" rx=".89" ry=".89" transform="translate(343.6 903.11) rotate(-90.43)" fill="none" stroke="#000" stroke-miterlimit="4" stroke-width=".11"/>
        <path d="M617.28,282.63l.54-.34" fill="none" stroke="#000" stroke-linecap="round" stroke-width=".22"/>
        <path d="M617.82,279.77l-.54-.34" fill="none" stroke="#000" stroke-linecap="round" stroke-width=".22"/>
        <path d="M616.97,281.04h.63" fill="none" stroke="#000" stroke-linecap="round" stroke-width=".22"/>
        <path d="M618.23,283.74l.24-.59" fill="none" stroke="#000" stroke-linecap="round" stroke-width=".22"/>
        <path d="M618.47,278.98l-.24-.59" fill="none" stroke="#000" stroke-linecap="round" stroke-width=".22"/>
      </g>


      <g id="casting_st_3">
        <metadata><elementId>casting_st_3</elementId></metadata>
        <rect x="432.23" y="119.37" width="6.09" height="6.09" rx=".81" ry=".81" fill="#ff7473" stroke="#000" stroke-width=".1"/>
        <path d="M436.64,121.4h-3.6c-.11,0-.2.09-.2.2v1.42c0,.11.09.2.2.2h3.6" fill="none" stroke="#000" stroke-width=".1"/>
        <path d="M436.63,121.4h.88c.11,0,.2.09.2.2v1.42c0,.11-.09.2-.2.2h-.88" fill="none" stroke="#000" stroke-width=".1"/>
        <path d="M433.68,122.83c-.07,0-.13-.02-.17-.05-.05-.03-.08-.08-.11-.14-.03-.06-.04-.14-.04-.23,0-.07,0-.14.02-.2.02-.06.04-.1.07-.14.03-.04.07-.07.11-.09.04-.02.09-.03.15-.03.04,0,.08,0,.11.02.04.01.07.03.1.06,0,0,.01.02.02.03,0,0,0,.02,0,.03,0,0,0,.02-.01.02,0,0-.01.01-.02.01,0,0-.02,0-.03,0-.03-.02-.06-.04-.08-.05-.03,0-.06-.01-.09-.01-.05,0-.09.01-.13.04-.04.03-.06.06-.08.11s-.03.11-.03.19v.11h-.01s.02-.08.04-.12c.02-.03.05-.06.09-.08s.07-.03.12-.03c.05,0,.09.01.13.04.04.02.07.06.09.1.02.04.03.09.03.14s-.01.1-.04.14c-.02.04-.06.08-.1.1-.04.02-.09.04-.14.04ZM433.67,122.74s.07,0,.09-.02c.03-.02.05-.04.06-.06.02-.03.02-.06.02-.1s0-.07-.02-.1c-.01-.03-.03-.05-.06-.06-.03-.02-.06-.02-.09-.02s-.07,0-.09.02c-.03.02-.05.04-.06.06-.01.03-.02.06-.02.1s0,.07.02.1c.02.03.04.05.06.06.03.02.06.02.09.02ZM434.38,122.83c-.1,0-.17-.04-.23-.11-.05-.08-.08-.19-.08-.33,0-.1.01-.18.03-.24.02-.06.06-.11.1-.15.05-.03.1-.05.17-.05.1,0,.18.04.23.11.05.07.08.18.08.33,0,.1-.01.18-.04.24-.02.07-.06.12-.1.15-.04.03-.1.05-.17.05ZM434.38,122.74c.06,0,.11-.03.14-.08.03-.06.05-.14.05-.26s-.02-.21-.05-.26c-.03-.06-.08-.08-.14-.08s-.11.03-.14.08c-.03.05-.05.14-.05.26s.02.21.05.26c.03.06.08.08.14.08ZM435.13,122.83s-.03,0-.04-.01c0,0-.02-.02-.02-.04l-.27-.76s0-.03,0-.05c0-.01.03-.02.05-.02.02,0,.03,0,.04.01,0,0,.02.02.02.04l.24.72h-.04l.25-.72s.01-.03.02-.04c0,0,.02-.01.04-.01.02,0,.03,0,.04.01,0,0,.02.02.02.04l.25.72h-.04l.25-.72s.01-.03.02-.04c0,0,.02-.01.04-.01.02,0,.03,0,.04.02,0,.01.01.03,0,.05l-.27.76s-.01.03-.02.04c0,0-.02.01-.04.01-.02,0-.03,0-.04-.01,0,0-.02-.02-.02-.04l-.24-.68h.03l-.24.68s-.01.03-.02.04c0,0-.02.01-.04.01Z"/>
        <path d="M437.11,122.83s-.08,0-.11,0c-.04,0-.07-.01-.1-.03-.03-.01-.06-.03-.09-.05-.01,0-.02-.02-.02-.03,0-.01,0-.02,0-.03,0-.01,0-.02.01-.03,0,0,.02-.01.03-.01,0,0,.02,0,.03,0,.04.03.08.04.12.05.04.01.09.02.14.02.07,0,.12-.01.16-.04.03-.03.05-.06.05-.1,0-.03-.01-.06-.04-.08-.02-.02-.07-.04-.12-.05l-.13-.03c-.08-.02-.13-.04-.17-.08-.04-.04-.06-.09-.06-.15,0-.04,0-.07.02-.1.02-.03.04-.06.07-.08.03-.02.06-.04.1-.05.04-.01.08-.02.13-.02.05,0,.1,0,.14.02.04.01.08.03.12.06,0,0,.02.02.02.03,0,0,0,.02,0,.03,0,0,0,.02-.01.02,0,0-.02.01-.03.01,0,0-.02,0-.03-.01-.03-.02-.07-.04-.1-.05-.03-.01-.07-.02-.11-.02s-.08,0-.11.02c-.03.01-.05.03-.07.05-.02.02-.02.05-.02.08,0,.04.01.07.03.09s.06.04.11.05l.13.03c.08.02.14.04.18.08.04.03.06.08.06.14,0,.04,0,.07-.02.1-.01.03-.04.06-.06.08-.03.02-.06.04-.1.05-.04.01-.08.02-.13.02Z"/>
        <line x1="436.54" y1="121.4" x2="436.54" y2="123.23" fill="none" stroke="#000" stroke-width=".1"/>
      </g>

      <g id="VCRRN6AM_3">
        <metadata><elementId>VCRRN6AM_3</elementId></metadata>
        <rect x="625.03" y="193.97" width="6.68" height="6.68" rx=".89" ry=".89" fill="#ff0" stroke="#000" stroke-width=".11"/>
        <path d="M626.87,199.2h3.75" fill="none" stroke="#000" stroke-linecap="round" stroke-linejoin="round" stroke-width=".11"/>
        <path d="M630.62,199.2c.8-1.24.44-2.89-.8-3.69-1.24-.8-2.89-.44-3.69.8-.57.88-.57,2.01,0,2.89" fill="none" stroke="#000" stroke-linecap="round" stroke-linejoin="round" stroke-width=".11"/>
        <path d="M626.54,199.2h.33" fill="none" stroke="#000" stroke-linecap="round" stroke-linejoin="round" stroke-width=".11"/>
        <path d="M626.13,199.2h.41" fill="none" stroke="#000" stroke-linecap="round" stroke-linejoin="round" stroke-width=".11"/>
        <path d="M628.42,198.22c-.16,0-.3-.04-.41-.12-.11-.08-.2-.19-.25-.34-.06-.15-.09-.33-.09-.54,0-.18.02-.33.06-.47.04-.14.09-.25.16-.34.07-.09.16-.17.26-.21.1-.05.22-.07.35-.07.09,0,.18.02.27.05.09.03.18.08.25.15.02.02.03.03.04.06,0,.02,0,.04,0,.06,0,.02-.02.04-.03.05-.01.01-.03.02-.05.02-.02,0-.04,0-.07-.03-.07-.06-.13-.1-.2-.12-.07-.03-.14-.04-.21-.04-.13,0-.23.03-.32.09-.09.06-.15.16-.2.28-.04.12-.07.28-.07.47v.27h-.03c.01-.11.04-.2.1-.28.05-.08.12-.14.21-.19.08-.04.18-.06.28-.06.12,0,.23.03.32.08s.17.13.22.23c.05.1.08.21.08.33s-.03.24-.08.34c-.05.1-.13.18-.23.24-.1.06-.21.08-.34.08ZM628.41,198.02c.08,0,.16-.02.23-.06.07-.04.12-.09.15-.16.04-.07.06-.15.06-.24s-.02-.17-.06-.23c-.04-.07-.09-.12-.15-.16-.07-.04-.14-.06-.23-.06s-.16.02-.23.06c-.07.04-.12.09-.15.16-.04.07-.06.15-.06.23s.02.17.06.24c.04.07.09.12.15.16.07.04.14.06.23.06Z"/>
      </g>
      <g id="VCRPSD_2">
        <metadata><elementId>VCRPSD_2</elementId></metadata>
        <rect x="623.89" y="176.84" width="6.68" height="6.68" rx=".89" ry=".89" fill="#ff7473" stroke="#000" stroke-width=".11"/>
        <path d="M628.73,179.07h-3.95c-.12,0-.22.1-.22.22v1.56c0,.12.1.22.22.22h3.95" fill="none" stroke="#000" stroke-width=".11"/>
        <path d="M628.71,179.07h.97c.12,0,.22.1.22.22v1.56c0,.12-.1.22-.22.22h-.97" fill="none" stroke="#000" stroke-width=".11"/>
        <path d="M629.24,180.71s0,.02.01.03c0,0,.02,0,.03,0l.45-.72s0-.02,0-.03c0-.01-.01-.02-.02-.02h-.34l.05-.52s0-.03-.01-.03c0,0-.02,0-.03,0l-.47.74s0,.02,0,.03c0,.01.01.02.02.02h.34l-.02.51Z" fill-rule="evenodd"/>
        <path d="M625.68,180.64c-.07,0-.14-.02-.19-.05-.05-.04-.09-.09-.12-.16-.03-.07-.04-.15-.04-.25,0-.08,0-.15.03-.22.02-.06.04-.11.08-.16.03-.04.07-.08.12-.1.05-.02.1-.03.16-.03.04,0,.08,0,.13.02.04.01.08.04.11.07,0,0,.02.02.02.03,0,.01,0,.02,0,.03,0,0,0,.02-.02.03,0,0-.02.01-.03.01-.01,0-.02,0-.03-.01-.03-.02-.06-.04-.09-.05-.03-.01-.06-.02-.09-.02-.06,0-.1.01-.14.04-.04.03-.07.07-.09.12s-.03.12-.03.21v.12h-.01s.02-.09.04-.13c.02-.04.06-.06.09-.08s.08-.03.13-.03c.06,0,.1.01.15.04.04.03.08.06.1.11.02.04.04.1.04.16s-.01.11-.04.16c-.03.05-.06.08-.11.11-.05.03-.1.04-.16.04ZM625.67,180.53s.07,0,.1-.03.05-.04.07-.07c.02-.03.03-.07.03-.1s0-.07-.03-.1c-.02-.03-.04-.05-.07-.07s-.06-.03-.1-.03-.07,0-.1.03c-.03.02-.05.04-.07.07-.02.03-.02.07-.02.1s0,.07.02.1c.02.03.04.05.07.07.03.02.06.03.1.03ZM626.45,180.64c-.11,0-.19-.04-.25-.12-.06-.08-.08-.2-.08-.36,0-.11.01-.19.04-.27.03-.07.06-.13.11-.16.05-.04.11-.05.18-.05.11,0,.19.04.25.12.06.08.08.2.08.36,0,.1-.01.19-.04.26-.02.07-.06.13-.11.16-.05.04-.11.06-.18.06ZM626.45,180.53c.07,0,.12-.03.16-.09.03-.06.05-.16.05-.29s-.02-.22-.05-.28c-.03-.06-.09-.09-.16-.09s-.12.03-.16.09c-.03.06-.05.15-.05.28s.02.23.05.29c.03.06.09.09.16.09ZM627.27,180.63s-.03,0-.04-.01c-.01,0-.02-.02-.03-.04l-.29-.83s0-.04,0-.05c.01-.01.03-.02.05-.02.02,0,.03,0,.04.01,0,0,.02.02.02.04l.27.79h-.05l.28-.79s.02-.03.03-.04c0,0,.02-.01.04-.01.02,0,.03,0,.04.01,0,0,.02.02.02.04l.27.78h-.04l.27-.79s.01-.03.02-.04c0,0,.02-.01.04-.01.02,0,.04,0,.05.02,0,.01.01.03,0,.05l-.29.83s-.01.03-.03.04c-.01,0-.02.01-.04.01-.02,0-.03,0-.04-.01-.01,0-.02-.02-.03-.04l-.26-.75h.03l-.26.75s-.02.03-.03.04c0,0-.02.01-.04.01Z"/>
        <line x1="628.62" y1="179.07" x2="628.62" y2="181.07" fill="none" stroke="#000" stroke-width=".11"/>
      </g>
      <g id="VCRPSD_3">
        <metadata><elementId>VCRPSD_3</elementId></metadata>
        <rect x="623.92" y="184.69" width="6.68" height="6.68" rx=".89" ry=".89" fill="#ff7473" stroke="#000" stroke-width=".11"/>
        <path d="M628.76,186.92h-3.95c-.12,0-.22.1-.22.22v1.56c0,.12.1.22.22.22h3.95" fill="none" stroke="#000" stroke-width=".11"/>
        <path d="M628.74,186.92h.97c.12,0,.22.1.22.22v1.56c0,.12-.1.22-.22.22h-.97" fill="none" stroke="#000" stroke-width=".11"/>
        <path d="M625.51,188.49c-.07,0-.14-.02-.19-.05-.05-.04-.09-.09-.12-.16-.03-.07-.04-.15-.04-.25,0-.08,0-.15.03-.22.02-.06.04-.11.08-.16.03-.04.07-.08.12-.1.05-.02.1-.03.16-.03.04,0,.08,0,.13.02.04.01.08.04.11.07,0,0,.02.02.02.03,0,.01,0,.02,0,.03,0,0,0,.02-.02.03,0,0-.02.01-.03.01-.01,0-.02,0-.03-.01-.03-.02-.06-.04-.09-.05-.03-.01-.06-.02-.09-.02-.06,0-.1.01-.14.04-.04.03-.07.07-.09.12s-.03.12-.03.21v.12h-.01s.02-.09.04-.13c.02-.04.06-.06.09-.08s.08-.03.13-.03c.06,0,.1.01.15.04.04.03.08.06.1.11.02.04.04.1.04.16s-.01.11-.04.16c-.03.05-.06.08-.11.11-.05.03-.1.04-.16.04ZM625.51,188.39s.07,0,.1-.03c.03-.02.05-.04.07-.07.02-.03.03-.07.03-.1s0-.07-.03-.1c-.02-.03-.04-.05-.07-.07-.03-.02-.06-.03-.1-.03s-.07,0-.1.03c-.03.02-.05.04-.07.07-.02.03-.02.07-.02.1s0,.07.02.1c.02.03.04.05.07.07.03.02.06.03.1.03ZM626.28,188.49c-.11,0-.19-.04-.25-.12-.06-.08-.08-.2-.08-.36,0-.11.01-.19.04-.27.03-.07.06-.13.11-.16.05-.04.11-.05.18-.05.11,0,.19.04.25.12.06.08.08.2.08.36,0,.1-.01.19-.04.26-.02.07-.06.13-.11.16-.05.04-.11.06-.18.06ZM626.28,188.39c.07,0,.12-.03.16-.09.03-.06.05-.16.05-.29s-.02-.22-.05-.28c-.03-.06-.09-.09-.16-.09s-.12.03-.16.09c-.03.06-.05.15-.05.28s.02.23.05.29c.03.06.09.09.16.09ZM627.1,188.49s-.03,0-.04-.01c-.01,0-.02-.02-.03-.04l-.29-.83s0-.04,0-.05c.01-.01.03-.02.05-.02.02,0,.03,0,.04.01,0,0,.02.02.02.04l.27.79h-.05l.28-.79s.02-.03.03-.04c0,0,.02-.01.04-.01.02,0,.03,0,.04.01,0,0,.02.02.02.04l.27.78h-.04l.27-.79s.01-.03.02-.04c0,0,.02-.01.04-.01.02,0,.04,0,.05.02,0,.01.01.03,0,.05l-.29.83s-.01.03-.03.04c-.01,0-.02.01-.04.01-.02,0-.03,0-.04-.01-.01,0-.02-.02-.03-.04l-.26-.75h.03l-.26.75s-.02.03-.03.04c0,0-.02.01-.04.01Z"/>
        <path d="M629.27,188.49s-.08,0-.12-.01c-.04,0-.08-.02-.11-.03-.03-.01-.07-.03-.09-.05-.01,0-.02-.02-.03-.03,0-.01,0-.02,0-.03,0-.01,0-.02.01-.03,0,0,.02-.01.03-.01.01,0,.02,0,.03.01.04.03.08.05.13.06.05.01.1.02.15.02.08,0,.14-.01.17-.04.04-.03.06-.07.06-.11,0-.04-.01-.07-.04-.09-.03-.02-.07-.04-.13-.05l-.14-.03c-.08-.02-.15-.05-.19-.09-.04-.04-.06-.1-.06-.16,0-.04,0-.08.03-.11.02-.03.04-.06.07-.09.03-.02.07-.04.11-.06.04-.01.09-.02.14-.02.06,0,.11,0,.16.02.05.02.09.04.13.07.01,0,.02.02.02.03,0,.01,0,.02,0,.03,0,.01,0,.02-.01.03,0,0-.02.01-.03.01-.01,0-.02,0-.04-.01-.04-.02-.07-.04-.11-.05-.04-.01-.08-.02-.12-.02s-.09,0-.12.02c-.03.01-.06.03-.08.06-.02.02-.03.05-.03.09,0,.04.01.07.04.1s.07.04.13.05l.14.03c.09.02.16.05.2.09.04.04.07.09.07.16,0,.04,0,.08-.03.11-.02.03-.04.06-.07.09-.03.02-.07.04-.11.05-.04.01-.09.02-.15.02Z"/>
        <line x1="628.65" y1="186.92" x2="628.65" y2="188.93" fill="none" stroke="#000" stroke-width=".11"/>
      </g>
      <g id="VCRSRLD_1">
        <metadata><elementId>VCRSRLD_1</elementId></metadata>
        <rect x="555.61" y="203.42" width="6.68" height="6.68" rx=".89" ry=".89" fill="transparent" stroke="#000" stroke-width=".11"/>
        <circle cx="558.96" cy="206.76" r="2.67" fill="none" stroke="#000" stroke-width=".11"/>
        <path d="M556.96,206.81s-.04,0-.06-.02c-.01-.01-.02-.03-.02-.05s0-.04.02-.05c.01-.01.03-.02.06-.02h.26v-1.14h.09l-.29.19s-.03.01-.05.01c-.01,0-.03,0-.04-.02,0-.01-.02-.02-.02-.04,0-.01,0-.03,0-.04,0-.02.02-.03.03-.04l.28-.18s.03-.02.05-.03.03-.01.05-.01c.02,0,.03,0,.05.02.01.01.02.03.02.05v1.22h.24s.04,0,.06.02c.01.01.02.03.02.05,0,.02,0,.04-.02.05-.01.01-.03.02-.06.02h-.67ZM558.45,206.83c-.16,0-.28-.06-.37-.19-.08-.12-.13-.3-.13-.54,0-.16.02-.29.06-.4.04-.11.09-.19.17-.24.07-.05.17-.08.27-.08.16,0,.29.06.37.18.08.12.13.3.13.54,0,.16-.02.29-.06.4-.04.11-.09.19-.17.25-.07.05-.16.08-.27.08ZM558.45,206.69c.11,0,.2-.05.25-.14.05-.1.08-.24.08-.44s-.03-.35-.08-.44c-.05-.09-.14-.14-.25-.14s-.19.05-.25.14c-.05.09-.08.24-.08.44s.03.35.08.44c.05.09.14.14.25.14ZM559.68,206.83s-.04,0-.06-.02c-.01-.01-.03-.03-.04-.06l-.44-1.26s0-.05,0-.07c.01-.02.04-.03.07-.03.02,0,.04,0,.05.02.01.01.02.03.03.05l.41,1.22h-.07l.42-1.21s.02-.04.03-.06c.01-.01.03-.02.05-.02.02,0,.04,0,.05.02.01.01.02.03.03.06l.42,1.21h-.06l.42-1.22s.02-.04.03-.05c.01-.01.03-.02.06-.02.03,0,.05,0,.06.03.01.02.01.04,0,.07l-.45,1.26s-.02.04-.04.06c-.01.01-.03.02-.06.02-.02,0-.04,0-.06-.02-.01-.01-.03-.03-.04-.06l-.4-1.16h.04l-.41,1.16s-.02.04-.03.06c-.01.01-.03.02-.06.02Z"/>
        <path d="M557.6,208.38s-.07,0-.1-.02c-.03-.01-.07-.03-.1-.05,0,0-.02-.01-.02-.02,0-.01,0-.02,0-.03,0,0,0-.02.01-.02,0,0,.01-.01.02-.01.01,0,.02,0,.03,0,.03.02.05.03.07.04.03,0,.05.01.07.01.05,0,.09-.01.12-.03s.06-.06.07-.1c.02-.04.02-.1.02-.17v-.09h.01s-.02.07-.04.1c-.02.03-.04.05-.08.07-.03.02-.07.02-.1.02-.05,0-.09-.01-.12-.03-.04-.02-.06-.05-.08-.09-.02-.04-.03-.08-.03-.13,0-.05.01-.1.03-.13.02-.04.05-.07.09-.09.04-.02.08-.03.13-.03.06,0,.12.02.16.05.04.03.08.07.1.13.02.06.04.13.04.21,0,.07,0,.13-.02.18-.01.05-.04.1-.06.13-.03.04-.06.06-.1.08-.04.02-.09.03-.14.03ZM557.64,207.99s.06,0,.08-.02c.02-.01.04-.03.05-.06.01-.02.02-.05.02-.08s0-.06-.02-.08c-.01-.02-.03-.04-.05-.06-.02-.01-.05-.02-.08-.02s-.06,0-.08.02c-.02.01-.04.03-.05.06-.01.02-.02.05-.02.08s0,.06.02.08c.01.02.03.04.05.06.02.01.05.02.08.02ZM558.34,208.38s-.08,0-.12-.02c-.04-.01-.08-.03-.11-.05-.01,0-.02-.02-.02-.03,0-.01,0-.02,0-.03,0-.01,0-.02.01-.03,0,0,.02-.01.03-.01.01,0,.02,0,.03,0,.03.02.06.03.09.04.03,0,.06.01.1.01s.06,0,.09-.02c.02-.01.04-.03.06-.05.01-.02.02-.05.02-.08,0-.05-.01-.09-.04-.11-.03-.03-.07-.04-.11-.04-.03,0-.05,0-.08.02-.02,0-.05.03-.07.05,0,0-.01.01-.02.02,0,0-.02,0-.03,0-.02,0-.03,0-.04-.01,0,0-.01-.02-.01-.03v-.38s0-.03.01-.04c0,0,.02-.01.04-.01h.37s.03,0,.04.01c0,0,.01.02.01.04s0,.03-.01.04c0,0-.02.01-.04.01h-.31v.28h-.03s.05-.05.08-.07c.03-.02.07-.02.11-.02.05,0,.09.01.13.03.04.02.06.05.08.09.02.04.03.08.03.13s-.01.1-.03.13c-.02.04-.05.07-.09.09-.04.02-.09.03-.15.03ZM559.39,208.38c-.08,0-.15-.02-.2-.05-.06-.03-.1-.08-.13-.14-.03-.06-.04-.13-.04-.21,0-.06,0-.12.03-.17.02-.05.04-.09.07-.13.03-.04.07-.06.12-.08.05-.02.1-.03.16-.03.04,0,.09,0,.13.02.04.01.08.03.11.05.01,0,.02.02.02.03,0,.01,0,.02,0,.03,0,.01,0,.02-.01.03,0,0-.02.01-.03.01-.01,0-.02,0-.04-.01-.02-.02-.05-.03-.08-.04-.03,0-.06-.01-.09-.01-.06,0-.1.01-.14.04-.04.02-.07.06-.09.1-.02.04-.03.1-.03.16s.01.12.03.16c.02.04.05.08.09.1.04.02.09.03.14.03.03,0,.06,0,.09-.01.03,0,.06-.02.09-.04.01,0,.03-.01.04-.01.01,0,.02,0,.03.01,0,0,.01.02.01.03,0,0,0,.02,0,.03,0,.01-.01.02-.02.03-.03.02-.07.04-.11.06-.04.01-.08.02-.13.02ZM559.85,208.38s-.03,0-.04-.02c0-.01-.01-.02-.01-.04v-.67s0-.03.02-.04c.01-.01.02-.02.04-.02h.27c.08,0,.15.02.2.06.05.04.07.1.07.17,0,.05-.01.09-.03.12-.02.03-.05.06-.09.08-.04.02-.09.03-.14.03v-.02h.04s.06,0,.08.02c.02.01.04.04.06.07l.1.18s.01.03.01.04c0,.01,0,.02-.01.03,0,0-.02.01-.04.01s-.03,0-.04-.01c0,0-.02-.02-.03-.03l-.12-.22s-.03-.05-.05-.06c-.02-.01-.05-.02-.08-.02h-.13v.27s0,.03-.01.04c0,.01-.02.02-.04.02ZM559.91,207.96h.19c.06,0,.1-.01.13-.04.03-.02.04-.06.04-.11s-.01-.08-.04-.1c-.03-.02-.07-.04-.13-.04h-.19v.28ZM560.61,208.38s-.03,0-.04-.02c0-.01-.01-.02-.01-.04v-.68s0-.03.01-.04c.01-.01.02-.02.04-.02s.03,0,.04.02c.01,0,.02.02.02.04v.68s0,.03-.01.04c0,.01-.02.02-.04.02Z"/>
      </g>
      <g id="VCRSRLD_2">
        <metadata><elementId>VCRSRLD_2</elementId></metadata>
        <rect x="555.28" y="249.78" width="6.68" height="6.68" rx=".89" ry=".89" fill="transparent" stroke="#000" stroke-width=".11"/>
        <circle cx="558.62" cy="253.13" r="2.67" fill="none" stroke="#000" stroke-width=".11"/>
        <path d="M556.63,253.18s-.04,0-.06-.02c-.01-.01-.02-.03-.02-.05s0-.04.02-.05c.01-.01.03-.02.06-.02h.26v-1.14h.09l-.29.19s-.03.01-.05.01c-.01,0-.03,0-.04-.02,0-.01-.02-.02-.02-.04,0-.01,0-.03,0-.04,0-.02.02-.03.03-.04l.28-.18s.03-.02.05-.03.03-.01.05-.01c.02,0,.03,0,.05.02.01.01.02.03.02.05v1.22h.24s.04,0,.06.02c.01.01.02.03.02.05,0,.02,0,.04-.02.05-.01.01-.03.02-.06.02h-.67ZM558.12,253.2c-.16,0-.28-.06-.37-.19-.08-.12-.13-.3-.13-.54,0-.16.02-.29.06-.4.04-.11.09-.19.17-.24.07-.05.17-.08.27-.08.16,0,.29.06.37.18.08.12.13.3.13.54,0,.16-.02.29-.06.4-.04.11-.09.19-.17.25-.07.05-.16.08-.27.08ZM558.12,253.06c.11,0,.2-.05.25-.14.05-.1.08-.24.08-.44s-.03-.35-.08-.44c-.05-.09-.14-.14-.25-.14s-.19.05-.25.14c-.05.09-.08.24-.08.44s.03.35.08.44c.05.09.14.14.25.14ZM559.35,253.2s-.04,0-.06-.02c-.01-.01-.03-.03-.04-.06l-.44-1.26s0-.05,0-.07c.01-.02.04-.03.07-.03.02,0,.04,0,.05.02.01.01.02.03.03.05l.41,1.22h-.07l.42-1.21s.02-.04.03-.06c.01-.01.03-.02.05-.02.02,0,.04,0,.05.02.01.01.02.03.03.06l.42,1.21h-.06l.42-1.22s.02-.04.03-.05c.01-.01.03-.02.06-.02.03,0,.05,0,.06.03.01.02.01.04,0,.07l-.45,1.26s-.02.04-.04.06c-.01.01-.03.02-.06.02-.02,0-.04,0-.06-.02-.01-.01-.03-.03-.04-.06l-.4-1.16h.04l-.41,1.16s-.02.04-.03.06c-.01.01-.03.02-.06.02Z"/>
        <path d="M557.26,254.75s-.07,0-.1-.02c-.03-.01-.07-.03-.1-.05,0,0-.02-.01-.02-.02,0-.01,0-.02,0-.03,0,0,0-.02.01-.02,0,0,.01-.01.02-.01.01,0,.02,0,.03,0,.03.02.05.03.07.04.03,0,.05.01.07.01.05,0,.09-.01.12-.03s.06-.06.07-.1c.02-.04.02-.1.02-.17v-.09h.01s-.02.07-.04.1c-.02.03-.04.05-.08.07-.03.02-.07.02-.1.02-.05,0-.09-.01-.12-.03-.04-.02-.06-.05-.08-.09-.02-.04-.03-.08-.03-.13,0-.05.01-.1.03-.13.02-.04.05-.07.09-.09.04-.02.08-.03.13-.03.06,0,.12.02.16.05.04.03.08.07.1.13.02.06.04.13.04.21,0,.07,0,.13-.02.18-.01.05-.04.1-.06.13-.03.04-.06.06-.1.08-.04.02-.09.03-.14.03ZM557.3,254.36s.06,0,.08-.02c.02-.01.04-.03.05-.06.01-.02.02-.05.02-.08s0-.06-.02-.08c-.01-.02-.03-.04-.05-.06-.02-.01-.05-.02-.08-.02s-.06,0-.08.02c-.02.01-.04.03-.05.06-.01.02-.02.05-.02.08s0,.06.02.08c.01.02.03.04.05.06.02.01.05.02.08.02ZM558,254.75s-.08,0-.12-.02c-.04-.01-.08-.03-.11-.05-.01,0-.02-.02-.02-.03,0-.01,0-.02,0-.03,0-.01,0-.02.01-.03,0,0,.02-.01.03-.01.01,0,.02,0,.03,0,.03.02.06.03.09.04.03,0,.06.01.1.01s.06,0,.09-.02c.02-.01.04-.03.06-.05.01-.02.02-.05.02-.08,0-.05-.01-.09-.04-.11-.03-.03-.07-.04-.11-.04-.03,0-.05,0-.08.02-.02,0-.05.03-.07.05,0,0-.01.01-.02.02,0,0-.02,0-.03,0-.02,0-.03,0-.04-.01,0,0-.01-.02-.01-.03v-.38s0-.03.01-.04c0,0,.02-.01.04-.01h.37s.03,0,.04.01c0,0,.01.02.01.04s0,.03-.01.04c0,0-.02.01-.04.01h-.31v.28h-.03s.05-.05.08-.07c.03-.02.07-.02.11-.02.05,0,.09.01.13.03.04.02.06.05.08.09.02.04.03.08.03.13s-.01.1-.03.13c-.02.04-.05.07-.09.09-.04.02-.09.03-.15.03ZM559.06,254.75c-.08,0-.15-.02-.2-.05-.06-.03-.1-.08-.13-.14-.03-.06-.04-.13-.04-.21,0-.06,0-.12.03-.17.02-.05.04-.09.07-.13.03-.04.07-.06.12-.08.05-.02.1-.03.16-.03.04,0,.09,0,.13.02.04.01.08.03.11.05.01,0,.02.02.02.03,0,.01,0,.02,0,.03,0,.01,0,.02-.01.03,0,0-.02.01-.03.01-.01,0-.02,0-.04-.01-.02-.02-.05-.03-.08-.04-.03,0-.06-.01-.09-.01-.06,0-.1.01-.14.04-.04.02-.07.06-.09.1-.02.04-.03.1-.03.16s.01.12.03.16c.02.04.05.08.09.1.04.02.09.03.14.03.03,0,.06,0,.09-.01.03,0,.06-.02.09-.04.01,0,.03-.01.04-.01.01,0,.02,0,.03.01,0,0,.01.02.01.03,0,0,0,.02,0,.03,0,.01-.01.02-.02.03-.03.02-.07.04-.11.06-.04.01-.08.02-.13.02ZM559.52,254.75s-.03,0-.04-.02c0-.01-.01-.02-.01-.04v-.67s0-.03.02-.04c.01-.01.02-.02.04-.02h.27c.08,0,.15.02.2.06.05.04.07.1.07.17,0,.05-.01.09-.03.12-.02.03-.05.06-.09.08-.04.02-.09.03-.14.03v-.02h.04s.06,0,.08.02c.02.01.04.04.06.07l.1.18s.01.03.01.04c0,.01,0,.02-.01.03,0,0-.02.01-.04.01s-.03,0-.04-.01c0,0-.02-.02-.03-.03l-.12-.22s-.03-.05-.05-.06c-.02-.01-.05-.02-.08-.02h-.13v.27s0,.03-.01.04c0,.01-.02.02-.04.02ZM559.58,254.33h.19c.06,0,.1-.01.13-.04.03-.02.04-.06.04-.11s-.01-.08-.04-.1c-.03-.02-.07-.04-.13-.04h-.19v.28ZM560.27,254.75s-.03,0-.04-.02c0-.01-.01-.02-.01-.04v-.68s0-.03.01-.04c.01-.01.02-.02.04-.02s.03,0,.04.02c.01,0,.02.02.02.04v.68s0,.03-.01.04c0,.01-.02.02-.04.02Z"/>
      </g>
      <g id="VCRDD">
        <metadata><elementId>VCRDD</elementId></metadata>
        <rect x="626.09" y="215.59" width="6.68" height="6.68" rx=".89" ry=".89" fill="#11cfce" stroke="#000" stroke-width=".11"/>
        <path d="M627.93,221.04h3.75" fill="none" stroke="#000" stroke-linecap="round" stroke-linejoin="round" stroke-width=".11"/>
        <path d="M627.6,221.04h.33" fill="none" stroke="#000" stroke-linecap="round" stroke-linejoin="round" stroke-width=".11"/>
        <path d="M631.68,221.04c.8-1.24.44-2.89-.8-3.69-1.24-.8-2.89-.44-3.69.8-.57.88-.57,2.01,0,2.89" fill="none" stroke="#000" stroke-linecap="round" stroke-linejoin="round" stroke-width=".11"/>
        <path d="M627.18,221.04h.41" fill="none" stroke="#000" stroke-linecap="round" stroke-linejoin="round" stroke-width=".11"/>
        <path d="M628.9,220.04s-.07,0-.09-.03c-.02-.02-.03-.05-.03-.09v-1.64s0-.07.03-.09c.02-.02.05-.03.09-.03h.52c.3,0,.54.08.71.24.17.16.25.39.25.7,0,.15-.02.29-.06.41-.04.12-.1.21-.18.29-.08.08-.18.14-.3.18s-.25.06-.41.06h-.52ZM629,219.86h.4c.12,0,.23-.02.32-.05.09-.03.17-.08.23-.14.06-.06.11-.14.14-.24.03-.1.05-.21.05-.33,0-.25-.06-.44-.18-.56-.12-.13-.31-.19-.55-.19h-.4v1.51Z"/>
      </g>
    </g>
  </g>
      <g id="Devices">
          <g id="Casting_Devices">

              <!-- Central Beam -->
              <path id="casting_r_7" fill="transparent" d="M560.13,221.06a1.51,1.51 0 1,0 -3.02,0a1.51,1.51 0 1,0 3.02,0M560.13,227.35a1.51,1.51 0 1,0 -3.02,0a1.51,1.51 0 1,0 3.02,0M560.13,233.36a1.51,1.51 0 1,0 -3.02,0a1.51,1.51 0 1,0 3.02,0M560.13,238.88a1.51,1.51 0 1,0 -3.02,0a1.51,1.51 0 1,0 3.02,0"/>

              <!-- Strip -->
              <path id="casting_st_3" fill="transparent" d="M547.75,120.58c.69,0,1.25.56,1.25,1.25,0,.69-.56,1.26-1.25,1.26h-9.03c-.69,0-1.25-.56-1.25-1.26,0-.69.56-1.25,1.25-1.25h9.03ZM539.22,121.08c-.42,0-.75.34-.75.75,0,.42.34.75.75.75.42,0,.75-.34.75-.75,0-.42-.34-.75-.75-.75ZM541.22,121.08c-.42,0-.75.34-.75.75,0,.42.34.75.75.75.42,0,.75-.34.75-.75,0-.42-.34-.75-.75-.75ZM543.23,121.08c-.42,0-.75.34-.75.75,0,.42.34.75.75.75.42,0,.75-.34.75-.75,0-.42-.34-.75-.75-.75ZM545.24,121.08c-.42,0-.75.34-.75.75,0,.42.34.75.75.75.42,0,.75-.34.75-.75,0-.42-.34-.75-.75-.75ZM547.25,121.08c-.42,0-.75.34-.75.75,0,.42.34.75.75.75.42,0,.75-.34.75-.75,0-.42-.34-.75-.75-.75ZM432.84,214.17c0-.69.56-1.25,1.25-1.25.69,0,1.26.56,1.26,1.25v9.03c0,.69-.56,1.25-1.26,1.25-.69,0-1.25-.56-1.25-1.25v-9.03ZM433.34,222.7c0,.42.34.75.75.75.42,0,.75-.34.75-.75,0-.42-.34-.75-.75-.75-.42,0-.75.34-.75.75ZM433.34,220.69c0,.42.34.75.75.75.42,0,.75-.34.75-.75,0-.42-.34-.75-.75-.75-.42,0-.75.34-.75.75ZM433.34,218.68c0,.42.34.75.75.75.42,0,.75-.34.75-.75,0-.42-.34-.75-.75-.75-.42,0-.75.34-.75.75ZM433.34,216.68c0,.42.34.75.75.75.42,0,.75-.34.75-.75,0-.42-.34-.75-.75-.75-.42,0,.34-.75-.75.75ZM433.34,214.67c0,.42.34.75.75.75.42,0,.75-.34.75-.75,0-.42-.34-.75-.75-.75-.42,0-.75.34-.75.75Z"/>

              <!-- Roof White Lights -->
              <path id="casting_r_14" d="M593.87,252.61v19.21h-19.27v-19.21h19.27M594.62,251.86h-20.77v20.71h20.77v-20.71h0Z" fill="transparent" />
              <path id="casting_r_15" d="M593.97,149.09v19.21h-19.27v-19.21h19.27M594.72,148.34h-20.77v20.71h20.77v-20.71h0Z" fill="transparent" />
              <path id="casting_r_12" d="M489.33,273.31v19.19h-19.21v-19.19h19.21M490.08,272.56h-20.71v20.69h20.71v-20.69h0Z" fill="transparent" />
              <path id="casting_r_9" d="M489.33,149.09v19.21h-19.21v-19.21h19.21M490.08,148.34h-20.71v20.71h20.71v-20.71h0Z" fill="transparent" />
              <path id="casting_r_11" d="M468.62,211.21v19.19h-19.21v-19.19h19.21M469.37,210.46h-20.71v20.69h20.71v-20.69h0Z" fill="transparent" />
              <path id="casting_r_4" d="M530.73,211.21v19.19h-19.21v-19.19h19.21M531.48,210.46h-20.71v20.69h20.71v-20.69h0Z" fill="transparent" />

              <!-- Fans -->
              <path id="casting_f_1" d="M492.47,165.43s2.26-.27,2.16,1.85l-.71,9.55h-.81v.54c.89.29,1.54,1.19,1.54,2.26,0,.17-.02.36-.05.53l.63.41.42-.75,7.93,4.27.03-.02c1.73.99.35,2.94.35,2.95,0,0-.95,2.24-2.58,1.05l-7.22-5.57.42-.75-.62-.4c-.39.39-.91.62-1.49.62-.57,0-1.09-.23-1.49-.62l-.62.4.42.75-7.21,5.57c-1.62,1.19-2.57-1.01-2.58-1.04,0,0-1.38-1.96.35-2.95l7.94-4.27.42.75.58-.38c0-.07,0-.23,0-.56,0-1.07.64-1.96,1.54-2.26v-.54h-.81l-.71-9.55c-.1-2.09,2.12-1.84,2.16-1.84ZM492.45,178.09c-.78,0-1.42.69-1.42,1.53,0,.84.64,1.53,1.42,1.53.78,0,1.42-.69,1.42-1.53,0-.84-.64-1.53-1.42-1.53ZM492.45,178.47c.06,0,.14,0,.21.02.06.02.14.04.21.06.07.02.13.06.18.11.05.05.11.09.16.14.05.06.1.11.13.17.04.06.08.13.1.2.02.07.04.14.07.21.01.07.02.15.02.22s0,.15-.02.22c-.02.07-.03.15-.05.22-.02.07-.06.14-.1.2-.04.06-.09.12-.13.17-.04.06-.1.11-.16.14-.05.05-.12.08-.18.11-.07.04-.13.06-.19.07-.06.01-.14.02-.21.02s-.14,0-.21-.02c-.06-.02-.14-.04-.21-.06-.07-.02-.13-.06-.18-.11-.05-.05-.11-.09-.16-.14-.03-.02-.05-.05-.07-.08l-.12-.19s-.03-.07-.04-.1c-.03-.07-.04-.14-.07-.21-.02-.07-.02-.15-.02-.22s0-.15.02-.22c.01-.07.03-.15.05-.22.02-.07.05-.14.1-.2.04-.06.09-.12.13-.17.04-.06.1-.11.16-.14.06-.04.12-.08.18-.11.07-.04.13-.05.2-.07.06-.02.14-.02.21-.02ZM490.34,180.14s-.02-.02-.03.02l.03-.02Z" fill="transparent" />
              <path id="casting_f_2" d="M492.44,241.34s2.26-.27,2.16,1.85l-.71,9.55h-.81v.54c.89.29,1.54,1.19,1.54,2.26,0,.17-.02.36-.05.53l.63.41.42-.75,7.93,4.27.03-.02c1.73.99.35,2.94.35,2.95,0,0-.95,2.24-2.58,1.05l-7.22-5.57.42-.75-.62-.4c-.39.39-.91.62-1.49.62-.57,0-1.09-.23-1.49-.62l-.62.4.42.75-7.21,5.57c-1.62,1.19-2.57-1.01-2.58-1.04,0,0-1.38-1.96.35-2.95l7.94-4.27.42.75.58-.38c0-.07,0-.23,0-.56,0-1.07.64-1.96,1.54-2.26v-.54h-.81l-.71-9.55c-.1-2.09,2.12-1.84,2.16-1.84ZM492.43,254.01c-.78,0-1.42.69-1.42,1.53,0,.84.64,1.53,1.42,1.53.78,0,1.42-.69,1.42-1.53,0-.84-.64-1.53-1.42-1.53ZM492.43,254.38c.06,0,.14,0,.21.02.06.02.14.04.21.06.07.02.13.06.18.11.05.05.11.09.16.14.05.06.1.11.13.17.04.06.08.13.1.2.02.07.04.14.07.21.01.07.02.15.02.22s0,.15-.02.22c-.02.07-.03.15-.05.22-.02.07-.06.14-.1.2-.04.06-.09.12-.13.17-.04.06-.1.11-.16.14-.05.05-.12.08-.18.11-.07.04-.13.06-.19.07-.06.01-.14.02-.21.02s-.14,0-.21-.02c-.06-.02-.14-.04-.21-.06-.07-.02-.13-.06-.18-.11-.05-.05-.11-.09-.16-.14-.03-.02-.05-.05-.07-.08l-.12-.19s-.03-.07-.04-.1c-.03-.07-.04-.14-.07-.21-.02-.07-.02-.15-.02-.22s0-.15.02-.22c.01-.07.03-.15.05-.22.02-.07.05-.14.1-.2.04-.06.09-.12.13-.17.04-.06.1-.11.16-.14.06-.04.12-.08.18-.11.07-.04.13-.05.2-.07.06-.02.14-.02.21-.02ZM490.32,256.06s-.02-.02-.03.02l.03-.02Z" fill="transparent" />
              <path id="casting_f_13" d="M589.97,192.99s2.26-.27,2.16,1.85l-.71,9.55h-.81v.54c.89.29,1.54,1.19,1.54,2.26,0,.17-.02.36-.05.53l.63.41.42-.75,7.93,4.27.03-.02c1.73.99.35,2.94.35,2.95,0,0-.95,2.24-2.58,1.05l-7.22-5.57.42-.75-.62-.4c-.39.39-.91.62-1.49.62-.57,0-1.09-.23-1.49-.62l-.62.4.42.75-7.21,5.57c-1.62,1.19-2.57-1.01-2.58-1.04,0,0-1.38-1.96.35-2.95l7.94-4.27.42.75.58-.38c0-.07,0-.23,0-.56,0-1.07.64-1.96,1.54-2.26v-.54h-.81l-.71-9.55c-.1-2.09,2.12-1.84,2.16-1.84ZM589.96,205.66c-.78,0-1.42.69-1.42,1.53,0,.84.64,1.53,1.42,1.53.78,0,1.42-.69,1.42-1.53,0-.84-.64-1.53-1.42-1.53ZM589.96,206.03c.06,0,.14,0,.21.02.06.02.14.04.21.06.07.02.13.06.18.11.05.05.11.09.16.14.05.06.1.11.13.17.04.06.08.13.1.2.02.07.04.14.07.21.01.07.02.15.02.22s0,.15-.02.22c-.02.07-.03.15-.05.22-.02.07-.06.14-.1.2-.04.06-.09.12-.13.17-.04.06-.1.11-.16.14-.05.05-.12.08-.18.11-.07.04-.13.06-.19.07-.06.01-.14.02-.21.02s-.14,0-.21-.02c-.06-.02-.14-.04-.21-.06-.07-.02-.13-.06-.18-.11-.05-.05-.11-.09-.16-.14-.03-.02-.05-.05-.07-.08l-.12-.19s-.03-.07-.04-.1c-.03-.07-.04-.14-.07-.21-.02-.07-.02-.15-.02-.22s0-.15.02-.22c.01-.07.03-.15.05-.22.02-.07.05-.14.1-.2.04-.06.09-.12.13-.17.04-.06.1-.11.16-.14.06-.04.12-.08.18-.11.07-.04.13-.05.2-.07.06-.02.14-.02.21-.02ZM587.85,207.7s-.02-.02-.03.02l.03-.02Z" fill="transparent" />

              <!-- AC & Exhaust -->
              <path id="casting_ac_6" d="M615.95,268.91s0,.06-.02.09c0,.04-.18.47-.64.64-.37.13-.8.06-1.28-.21-.9-.51-1.3.03-1.37.14-.06.11-.21.15-.34.09-.08-.06-.11-.15-.11-.22,0-.05.01-.08.03-.12.12-.18.77-1.05,2.04-.33.35.19.62.24.85.17.25-.08.35-.34.36-.35.05-.12.19-.18.32-.13.1.04.16.12.16.22ZM616.24,267.2s0,.06-.02.09c-.04.1-.21.46-.61.6-.35.12-.74.05-1.19-.19-.88-.49-1.23.1-1.25.13-.03.05-.08.09-.14.11-.06.02-.13.01-.19-.02-.07-.05-.1-.15-.1-.22,0-.05,0-.08.03-.12.21-.37.88-.89,1.92-.31.32.17.57.22.77.15.22-.07.31-.3.32-.31.05-.13.18-.19.32-.14.1.04.16.12.16.22ZM616.24,270.59s0,.06-.02.09c-.04.1-.2.46-.61.6-.35.12-.74.06-1.18-.19-.88-.49-1.23.1-1.25.13-.03.05-.08.09-.14.11-.06.02-.13.01-.19-.02-.08-.06-.11-.15-.11-.22,0-.05,0-.08.03-.12.21-.37.88-.89,1.92-.31.32.17.57.22.77.15.22-.07.31-.3.32-.31.05-.13.18-.19.32-.14.1.04.16.12.16.22ZM616.21,273.93c0,.08-.03.15-.08.2-.05.05-.12.08-.19.08-.09,0-.18-.05-.23-.14v-.03h-.53s.26.45.26.45h.01c.08,0,.18.03.23.13.03.04.04.09.04.14,0,.1-.05.19-.13.23-.07.04-.14.05-.21.03s-.13-.06-.16-.13c-.03-.04-.04-.09-.04-.13,0-.05.01-.1.04-.14l-.27-.47-.27.46c.02.06.03.11.03.15,0,.05-.01.09-.03.13-.08.12-.26.17-.38.1-.08-.05-.13-.14-.13-.25,0-.05.01-.1.04-.14.05-.08.13-.13.23-.13h0s.25-.44.25-.44h-.53,0c-.04.1-.13.15-.23.15-.16,0-.29-.12-.29-.28,0-.08.03-.14.08-.19.05-.05.12-.08.19-.08.11,0,.21.07.27.17h0s.55.01.55.01l-.3-.52h-.01c-.08,0-.18-.03-.23-.13-.03-.04-.04-.09-.04-.14,0-.1.05-.19.13-.23.07-.04.14-.05.21-.03s.13.06.16.13c.03.04.04.09.04.13,0,.05-.01.1-.04.14l.27.47.27-.46c-.02-.06-.03-.11-.03-.15,0-.05.01-.09.03-.13.08-.12.25-.17.38-.1.08.05.13.14.13.25,0,.05-.01.1-.04.14-.05.08-.13.13-.23.13h-.01s-.3.52-.3.52h.55,0c.05-.11.15-.18.27-.18.15,0,.28.12.28.28ZM622.99,275.69c0,.78-.62,1.4-1.4,1.4h-3.33c-.78,0-1.4-.62-1.4-1.4v-9.2c0-.78.62-1.4,1.4-1.4h3.33c.78,0,1.4.62,1.4,1.4v9.2ZM622.37,266.35c0-.37-.31-.66-.69-.66h-3.55c-.38,0-.69.3-.69.66v9.48c0,.37.31.66.69.66h3.55c.38,0,.69-.3.69-.66v-9.48ZM618.88,275.33c0,.13-.11.24-.25.24-.13,0-.24-.11-.24-.24v-8.7c0-.13.11-.24.24-.25.13,0,.25.11.25.25v8.7ZM619.92,275.33c0,.13-.11.24-.25.24-.13,0-.24-.11-.24-.24v-8.7c0-.13.11-.25.24-.25.13,0,.25.11.25.25v8.7ZM621.42,269.07c0,.09-.07.17-.16.17h-.37c-.09,0-.16-.08-.16-.17v-2.55c0-.09.07-.17.16-.17h.37c.09,0,.16.08.16.17v2.55Z" fill="transparent" />
              <path id="casting_ex_4" d="M624.42,205.11c.16-.43.66-.59,1.08-.46.36.11.73.27,1.05.51l.05.04c.1.09.16.22.13.36-.02.13-.11.23-.2.28-.48.25-.91.62-1.23,1.04l-.03.04.14-.08c.45-.25.97-.4,1.48-.49h0c.43-.07.8.24.92.63l.02.08h0c.08.37.13.76.08,1.16-.02.16-.1.29-.25.35-.13.05-.26.02-.34-.04h0c-.46-.29-1-.48-1.52-.54h-.05s.14.08.14.08c.44.26.83.64,1.16,1.04.29.35.18.87-.14,1.17h0c-.28.25-.59.49-.96.65-.15.06-.31.06-.43-.04-.1-.09-.14-.21-.14-.31.02-.54-.08-1.1-.29-1.58l-.02-.04v.16c0,.52-.14,1.04-.32,1.53-.16.43-.66.59-1.08.46-.36-.11-.73-.27-1.05-.51h0c-.13-.1-.2-.24-.18-.39.02-.13.11-.23.2-.27l.09-.05c.45-.25.84-.6,1.14-.99l.03-.04-.14.08c-.45.25-.97.4-1.48.49h0c-.45.08-.84-.28-.94-.71-.08-.37-.13-.76-.09-1.16.02-.16.1-.29.25-.35.11-.04.22-.02.31.02l.03.02h0c.46.29,1,.48,1.52.54h.05s-.14-.08-.14-.08c-.45-.26-.83-.64-1.16-1.04h0c-.29-.35-.18-.87.14-1.17.28-.26.59-.49.96-.65l.06-.02c.13-.04.27-.03.37.06.1.09.14.21.14.31h0c-.02.54.08,1.1.29,1.58l.02.04v-.16c0-.52.14-1.04.32-1.53h0ZM624.15,209.29c-.31.38-.71.72-1.15.97.24.16.52.28.82.37h0c.24.08.44-.04.49-.17l.06-.17c.1-.31.18-.62.21-.93-.15,0-.29-.02-.43-.07ZM625.87,208.61c-.07.13-.17.24-.27.34.17.46.27.97.26,1.48.26-.13.5-.31.73-.52.19-.17.19-.4.1-.51h0c-.25-.3-.52-.57-.82-.79ZM621.73,207.69c-.02.29.02.59.09.89h0c.06.25.26.37.4.34.38-.07.76-.17,1.09-.31-.07-.13-.13-.27-.16-.41-.49-.08-.98-.26-1.41-.51ZM625,206.94c-.19-.09-.41-.11-.62-.07l-.23.05h0s-.15.12-.15.12c-.17.12-.3.3-.37.5l-.07.23h0s.02.19.02.19c.02.21.11.41.25.57l.16.18h0s.17.07.17.07c.19.09.41.11.62.07l.23-.05h0s.15-.12.15-.12c.17-.12.3-.3.37-.5l.08-.23h-.01s-.02-.19-.02-.19c-.02-.21-.11-.41-.25-.57l-.16-.18h0s-.17-.07-.17-.07ZM624.59,207.08c.43,0,.78.35.78.78s-.35.78-.78.78-.78-.35-.78-.78c0-.43.35-.78.78-.78ZM626.97,206.81h0c-.38.07-.76.16-1.09.31.07.13.13.27.16.41.49.08.98.26,1.41.51.02-.29-.02-.59-.09-.89v-.05c-.08-.22-.26-.32-.4-.3ZM623.31,205.3c-.26.13-.5.31-.73.52h0c-.18.16-.19.37-.11.49l.02.02h0c.25.3.52.57.82.79.07-.13.17-.24.27-.34-.17-.46-.27-.97-.26-1.48ZM625.35,205.11c-.24-.08-.44.04-.49.17-.13.36-.24.74-.27,1.1.15,0,.29.02.43.07.31-.38.71-.72,1.15-.97-.24-.16-.52-.28-.82-.37h0Z" style="fill:transparent; fill-rule:evenodd;" />
          </g>

      </g>

  <g id="Relation">

    <!--  → Fans  monitor -->
    (casting_f1 casting_f_1)
    (casting_f2 casting_f_2)

    (casting_f3 casting_f_3)

    <!-- VCRRN6AM (Motion/Sensor Nodes) → Zones they cover -->
    (VCRRN6AM_1  casting_r_15)
    (VCRRN6AM_2  casting_r_9)
    (VCRRN6AM_3  casting_r_14)
    (VCRRN6AM_4  casting_r_10)
    (VCRRN6AM_5  casting_r_11)
    (VCRRN6AM_6  casting_r_12)
    (VCRRN6AM_7  casting_r_7)
    (VCRRN6AM_8  casting_r_11)
    (VCRRN6AM_9  casting_r_9)
    (VCRRN6AM_10 casting_r_10)

    <!--  → Light strip  -->
    (casting_st_3 casting_st_3)
    (casting_st_3 casting_st_3)

    <!-- → AC unit -->
    (casting_ac_6 casting_ac_6)

    <!--  → Exhaust fan it powers -->
    (casting_ex_4 casting_ex_4)


    <!-- VCRSRLD (Reader/Display) → Zones they read -->
    (VCRSRLD_1 casting_r_14)
    (VCRSRLD_2 casting_r_7)


    <!-- VCRDD (Display/Monitor) → All zones it displays -->
    (VCRDD casting_r_14)
    (VCRDD casting_r_15)

  </g>
</svg>
