<?xml version='1.0' encoding='UTF-8'?>
<svg xmlns="http://www.w3.org/2000/svg" xmlns:xlink="http://www.w3.org/1999/xlink" viewBox="0 0 1200 640">

  <g id="Background">
    <rect width="1200" height="640"/>
  </g>

  <g id="Devices">
    <g id="Production">
      <path id="smt_s_11_1_2"
          d="M311.24,354.27c0,1.38,1.12,2.5,2.5,2.5s2.5-1.12,2.5-2.5-1.12-2.5-2.5-2.5-2.5,1.12-2.5,2.5"
          style="fill:#fb0;" />
      <path id="smt_s_11_2_2"
          d="M374.45,354.27c0,1.38,1.12,2.5,2.5,2.5s2.5-1.12,2.5-2.5-1.12-2.5-2.5-2.5-2.5,1.12-2.5,2.5"
          style="fill:#fb0;" />

    </g>
  </g>
  <g id="Icons">
    <g id="smt_Room">
      <metadata><elementId>PDRD</elementId></metadata>

      <g id="smt:LC Node">
        <metadata>
          <elementId>11</elementId>
          <reciveId>22</reciveId>
        </metadata>
        <rect x="342.49" y="350.77" width="7" height="7" rx=".93" ry=".93"
            style="fill:#11cfce; stroke:#000; stroke-width:.12px;" />
        <path d="M347.56,353.11h-4.14c-.13,0-.23.1-.23.23v1.63c0,.13.1.23.23.23h4.14"
            style="fill:none; stroke:#000; stroke-width:.12px;" />
        <path d="M347.54,353.11h1.01c.13,0,.23.1.23.23v1.63c0,.13-.1.23-.23.23h-1.01"
            style="fill:none; stroke:#000; stroke-width:.12px;" />
        <circle cx="344.02" cy="354.11" r=".31" />
        <path
            d="M347.65,354.83s-.04,0-.05-.02c-.01-.01-.02-.03-.02-.05v-.52h-.51s-.04,0-.05-.02c-.01-.01-.02-.03-.02-.05s0-.04.02-.05c.01-.01.03-.02.05-.02h.51v-.5s0-.04.02-.05c.01-.01.03-.02.05-.02s.04,0,.05.02c.01.01.02.03.02.05v.5h.51s.04,0,.05.02c.01.01.02.03.02.05,0,.02,0,.04-.02.05-.01.01-.03.02-.05.02h-.51v.52s0,.04-.02.05c-.01.01-.03.02-.05.02Z" />
      </g>

    </g>


  </g>

  <g id="Relation">
    <!-- smt Production -->
    (smt:LC Node | smt_s_11_1_2, smt_s_11_2_2)

  </g></svg>
