<svg width="24" height="24" viewBox="0 0 24 24" fill="none" xmlns="http://www.w3.org/2000/svg">
<path d="M21.4993 10.0021H2.50073C1.12005 10.0021 0 11.1221 0 12.4993V19.5013C0 19.7761 0.221896 20.0015 0.500147 20.0015C0.774875 20.0015 1.00029 19.7761 1.00029 19.5013V18.0009H22.9997V19.5013C22.9997 19.7761 23.2251 20.0015 23.4999 20.0015C23.7746 20.0015 24 19.7761 24 19.5013V12.4993C24 11.1221 22.8764 10.0021 21.4993 10.0021ZM22.9997 17.0006H1.00029V16.0003H22.9997V17.0006ZM2.50073 9.00176H4.99795C4.84649 9.00176 4.70208 8.93132 4.60699 8.80804C4.51189 8.68829 4.47667 8.52979 4.51541 8.37834L4.82536 7.13502C4.9909 6.46933 5.59319 6.00088 6.28001 6.00088H9.49927C10.327 6.00088 10.9997 6.67361 10.9997 7.50132V8.50162C10.9997 8.77634 10.7743 9.00176 10.4996 9.00176H13.5004C13.2222 9.00176 13.0003 8.77634 13.0003 8.50162V7.50132C13.0003 6.67361 13.673 6.00088 14.5007 6.00088H17.72C18.4068 6.00088 19.0056 6.46933 19.1746 7.13502L19.4846 8.37834C19.5233 8.52979 19.4881 8.68829 19.393 8.80804C19.2979 8.93132 19.1535 9.00176 18.9985 9.00176H21.4993C21.7775 9.00176 21.9994 8.77634 21.9994 8.50162V5.50073C21.9994 4.12357 20.8794 3 19.4987 3H4.4978C3.12063 3 2.00059 4.12357 2.00059 5.50073V8.50162C2.00059 8.77634 2.22248 9.00176 2.50073 9.00176Z" fill="#ECF2EF"/>
</svg>
