<svg width="24" height="24" viewBox="0 0 24 24" fill="none" xmlns="http://www.w3.org/2000/svg">
<path d="M11.4118 24C8.72549 24 6.48549 23.06 4.69176 21.18C2.89804 19.3 2.00078 16.96 2 14.16C2 12.16 2.77961 9.9852 4.33882 7.6356C5.89804 5.286 8.25569 2.7408 11.4118 0C11.9412 0.46 12.4412 0.91 12.9118 1.35C13.3824 1.79 13.8431 2.23 14.2941 2.67C13.6078 3.47 12.9561 4.4152 12.3388 5.5056C11.7216 6.596 11.4125 7.6808 11.4118 8.76C11.4118 10.66 12.0443 12.2752 13.3094 13.6056C14.5745 14.936 16.0988 15.6008 17.8824 15.6C18.3922 15.6 18.8875 15.5452 19.3682 15.4356C19.849 15.326 20.3243 15.1408 20.7941 14.88C20.6373 17.5 19.6765 19.6752 17.9118 21.4056C16.1471 23.136 13.9804 24.0008 11.4118 24ZM14.9412 11.88C14.1569 11 13.7647 9.96 13.7647 8.76C13.7647 7.92 14.1275 6.94 14.8529 5.82C15.5784 4.7 16.5882 3.56 17.8824 2.4C19.2549 3.64 20.2843 4.7848 20.9706 5.8344C21.6569 6.884 22 7.8592 22 8.76C22 9.96 21.6078 11 20.8235 11.88C20.0392 12.76 19.0588 13.2 17.8824 13.2C16.7059 13.2 15.7255 12.76 14.9412 11.88Z" fill="#ECF2EF"/>
</svg>
