<svg width="24" height="24" viewBox="0 0 24 24" fill="none" xmlns="http://www.w3.org/2000/svg">
<path d="M5.17327 1.07765L8.43121 7.73129L7.72586 8.22518L3.05724 2.55931L2.58664 2.88883L6.31405 9.21374L5.6087 9.70763L0.470606 4.37049L0 4.70001L5.45742 12.494C5.56876 12.653 5.73499 12.7639 5.91954 12.8022C6.10409 12.8406 6.29185 12.8032 6.4415 12.6985L7.91087 11.6696L14.0753 21.6526C14.1725 21.8141 14.3004 21.9551 14.451 22.0667C14.6015 22.1783 14.7714 22.2579 14.9498 22.3007C15.1282 22.3434 15.3113 22.3483 15.4874 22.315C15.6635 22.2817 15.8288 22.211 15.9729 22.1073L16.5372 21.7122C17.1579 21.2775 17.2571 20.4057 16.759 19.7735L9.48633 10.5664L10.9557 9.53758C11.1054 9.43279 11.2046 9.26912 11.2317 9.08259C11.2588 8.89606 11.2115 8.70194 11.1002 8.54293L5.64275 0.748919L5.17214 1.07844L5.17327 1.07765Z" fill="#ECF2EF"/>
<path d="M20.6144 2.37066C18.7444 1.06126 15.9131 1.87896 14.2901 4.19677C12.9006 6.18125 12.8477 8.62274 14.0351 10.1047L6.67683 19.4197C6.55831 19.5663 6.46956 19.7347 6.41622 19.9144C6.36288 20.094 6.3461 20.2809 6.36695 20.4631C6.3878 20.6454 6.44583 20.8191 6.53735 20.9732C6.62887 21.1273 6.75189 21.2585 6.89861 21.3584L7.46289 21.7535C8.08359 22.1881 8.93682 21.9832 9.36052 21.2988L15.5971 11.1983C17.3966 11.8061 19.6719 10.9226 21.0614 8.93809C22.6844 6.62027 22.4844 3.68005 20.6144 2.37066Z" fill="#ECF2EF"/>
</svg>
