<svg width="24" height="24" viewBox="0 0 24 24" fill="none" xmlns="http://www.w3.org/2000/svg">
<path fill-rule="evenodd" clip-rule="evenodd" d="M22.2529 19.8363C22.3151 19.8396 22.9606 19.8745 22.7959 20.3929C22.6736 20.7771 22.2129 20.7082 22.1474 20.7122C21.9776 20.7236 21.6272 21.3396 21.2842 21.4828C21.0035 21.5999 20.9906 21.5744 14.3759 21.5765C11.1174 21.5776 11.0533 21.6212 10.7148 21.2835C10.3338 20.9033 10.4151 20.7297 9.90525 20.7044C9.41509 20.6802 9.30735 20.0653 9.74997 19.8685C9.82733 19.8341 9.84716 19.8357 22.2529 19.8363ZM6.81443 2.81186C12.7497 1.02608 18.8023 5.60417 18.9306 11.555C18.9314 11.587 18.9384 11.9008 18.9082 11.9339C18.8714 11.9724 18.8593 11.9656 15.9189 11.9662C15.8865 11.9664 15.5437 12.0047 15.5351 11.8753C15.5017 11.3481 15.5737 8.75995 12.8154 6.84213C9.46688 4.514 3.91755 6.34842 3.41989 11.3958C3.19439 13.6849 4.52827 17.198 8.6279 17.8871C8.93166 17.9386 8.66076 18.4858 9.37888 18.888C9.60152 19.0126 10.0419 18.9992 9.92282 19.1273C9.90263 19.1447 9.00584 19.1349 8.7988 20.0199C8.57883 20.9604 9.41752 21.2586 9.52927 21.2982L9.54392 21.3499C9.54274 21.3535 9.58107 21.4005 9.47751 21.3939C8.91995 21.3581 3.58103 21.4278 0.892551 15.9261C-1.3795 11.2765 0.718829 4.6461 6.81443 2.81186ZM22.3066 17.4437C22.8186 17.4513 22.8374 17.8769 22.7968 17.9984C22.6671 18.387 22.2465 18.3198 22.1484 18.3255C21.8961 18.3408 21.7001 19.0697 20.9775 19.1771C20.8299 19.199 12.2121 19.1861 11.4482 19.1849C10.8982 19.1543 10.7454 18.9374 10.459 18.6126C10.2188 18.3405 10.2033 18.3372 9.90427 18.3187C9.49707 18.2934 9.37451 17.8796 9.55075 17.6341C9.72523 17.3915 10.0694 17.4446 10.1709 17.4447C21.3364 17.4511 21.3359 17.4294 22.3066 17.4437ZM8.84275 6.68198C9.06507 6.66308 10.3993 6.54982 11.6015 7.09799C11.7602 7.1703 12.622 7.56325 13.3584 8.36655C14.7852 9.9231 14.7702 11.8552 14.7002 11.931C14.6328 12.0019 11.5789 11.9539 10.0107 11.9652C8.53056 11.9762 8.42597 13.6843 9.4365 14.139C9.62374 14.2233 10.3359 14.3041 9.74411 14.3724C9.00254 14.4584 8.40541 15.3931 9.02536 16.2152C9.47389 16.8098 10.6305 16.6165 9.89841 16.7533C9.4678 16.8337 9.46117 16.829 9.10251 17.0833C8.96181 17.1831 7.94112 16.9922 7.14255 16.6009C2.77644 14.4612 3.2643 7.57843 8.84275 6.68198ZM22.1465 15.0531C22.4915 15.0539 22.7593 15.0604 22.8095 15.4925C22.7358 16.1139 22.1903 15.8433 22.0459 15.9779C21.4391 16.5494 21.5129 16.7883 20.5498 16.7972C20.5125 16.7974 11.9103 16.7966 11.5019 16.7972C10.5762 16.7987 10.4385 15.9552 10.1162 15.933C10.0721 15.9303 9.73399 15.983 9.55075 15.7464C9.40752 15.5615 9.43334 15.065 9.95798 15.055C11.4395 15.0269 21.1705 15.0507 22.1465 15.0531ZM22.3593 12.6673C22.7603 12.6914 22.8036 13.0462 22.8095 13.097C22.7588 13.7304 22.2007 13.4072 21.9951 13.6371C21.3822 14.3223 21.3617 14.4057 20.4433 14.4056C11.2965 14.4049 11.2845 14.4161 11.0849 14.349C10.6143 14.1907 10.3488 13.5562 10.1162 13.5433C10.0575 13.5403 9.7306 13.5986 9.55075 13.3509C9.40256 13.1462 9.43806 12.6764 9.95798 12.6664C10.1041 12.6636 22.258 12.6631 22.3593 12.6673ZM20.3877 7.59604C20.5112 7.58572 20.4698 7.65421 20.5927 7.93979C20.8487 8.53379 21.4797 8.57287 21.4951 8.68295C21.5117 8.80292 21.4409 8.76176 21.1982 8.86166C20.5114 9.14449 20.5583 9.79845 20.3906 9.79233C20.3233 9.78985 20.3427 9.76117 20.2549 9.57553C19.9258 8.835 19.7311 8.96229 19.3398 8.76303C19.2004 8.69203 19.4676 8.58 19.4853 8.5726C20.4129 8.18299 20.1831 7.61334 20.3877 7.59604ZM21.831 3.13608C21.9579 3.18722 22.0741 3.81774 22.4316 4.30014C22.8366 4.84638 23.5518 5.07572 23.6367 5.11459C23.6678 5.12736 23.9915 5.26007 23.999 5.32846C24.046 5.78391 22.8065 5.21563 22.0429 7.13803C21.9103 7.47218 21.9528 7.51366 21.8261 7.55893C21.2998 7.74696 21.928 6.37447 19.9629 5.59799C19.638 5.46964 19.5839 5.52216 19.5449 5.37826C19.4256 4.93804 20.7627 5.4354 21.5146 3.51987C21.5232 3.49723 21.6148 3.04892 21.831 3.13608Z" fill="#ECF2EF"/>
</svg>
